<svg width="18" height="18" viewBox="0 0 18 18" fill="none" xmlns="http://www.w3.org/2000/svg">
<path fill-rule="evenodd" clip-rule="evenodd" d="M6.6875 12C7.3474 12 7.6778 12.0001 7.88281 12.2051C8.0876 12.4101 8.08789 12.7407 8.08789 13.4004V16.5996C8.08789 17.2593 8.0876 17.5899 7.88281 17.7949C7.6778 17.9999 7.3474 18 6.6875 18H1.55762C0.897651 18 0.56733 17.9999 0.362305 17.7949C0.157331 17.5899 0.157227 17.2595 0.157227 16.5996V13.4004C0.157227 12.7405 0.157331 12.4101 0.362305 12.2051C0.56733 12.0001 0.89765 12 1.55762 12H6.6875ZM2.13965 14V16H6.10449V14H2.13965Z" fill="#444050"/>
<path fill-rule="evenodd" clip-rule="evenodd" d="M16.5996 8.66699C17.2596 8.66699 17.5899 8.66705 17.7949 8.87207C17.9998 9.07708 18 9.40679 18 10.0664V16.5996C18 17.2596 17.9999 17.5899 17.7949 17.7949C17.5899 17.9999 17.2596 18 16.5996 18H11.4697C10.8101 18 10.4804 17.9997 10.2754 17.7949C10.0704 17.5899 10.0703 17.2596 10.0703 16.5996V10.0664C10.0703 9.40661 10.0704 9.07707 10.2754 8.87207C10.4804 8.6671 10.8099 8.66699 11.4697 8.66699H16.5996ZM12.0527 10.7002V16H16.0176V10.7002H12.0527Z" fill="#444050"/>
<path fill-rule="evenodd" clip-rule="evenodd" d="M6.6875 0C7.3474 4.66728e-10 7.6778 6.26594e-05 7.88281 0.205078C8.0876 0.410121 8.08789 0.740685 8.08789 1.40039V7.93359C8.08789 8.59295 8.08741 8.9229 7.88281 9.12793C7.6778 9.33295 7.3474 9.33301 6.6875 9.33301H1.40039C0.740424 9.33301 0.410103 9.33295 0.205078 9.12793C0.000242457 8.92292 3.51235e-09 8.59321 0 7.93359V1.40039C0 0.740424 5.28693e-05 0.410103 0.205078 0.205078C0.410103 5.28693e-05 0.740424 0 1.40039 0H6.6875ZM2.13965 2V7.33301H6.10449V2H2.13965Z" fill="#444050"/>
<path fill-rule="evenodd" clip-rule="evenodd" d="M16.5996 0C17.2596 0 17.5899 5.32269e-05 17.7949 0.205078C17.9999 0.410103 18 0.740424 18 1.40039V4.59961C18 5.25958 17.9999 5.5899 17.7949 5.79492C17.5899 5.99995 17.2596 6 16.5996 6H11.4697C10.8101 6 10.4804 5.99973 10.2754 5.79492C10.0704 5.5899 10.0703 5.25958 10.0703 4.59961V1.40039C10.0703 0.740424 10.0704 0.410103 10.2754 0.205078C10.4804 0.00026755 10.8101 2.07692e-09 11.4697 0H16.5996ZM12.0527 2V4H16.0176V2H12.0527Z" fill="#444050"/>
</svg>
