<svg width="18" height="22" viewBox="0 0 18 22" fill="none" xmlns="http://www.w3.org/2000/svg">
<path d="M11.25 19.7436C11.25 20.9846 10.2375 22 9 22C7.75125 22 6.75 20.9846 6.75 19.7436H11.25Z" fill="#444050"/>
<path fill-rule="evenodd" clip-rule="evenodd" d="M9 0C9.93375 0 10.6875 0.755897 10.6875 1.69231V2.45913C13.905 3.22631 15.75 6.12615 15.75 9.58974V15.2308L18 17.4872V18.6154H0V17.4872L2.25 15.2308V9.58974C2.25 6.11487 4.08375 3.22631 7.3125 2.45913V1.69231C7.3125 0.755897 8.06625 0 9 0ZM8.00391 5.38689C6.43673 5.75936 5.25 7.16419 5.25 9.58974V15.6068H12.75V9.58974C12.75 7.17804 11.5533 5.75889 9.99316 5.38689L9.00146 5.14891L8.00391 5.38689Z" fill="#444050"/>
</svg>
