<svg width="18" height="16" viewBox="0 0 18 16" fill="none" xmlns="http://www.w3.org/2000/svg">
<path fill-rule="evenodd" clip-rule="evenodd" d="M8.99912 1.43301e-07C9.25531 -0.000143345 9.49976 0.107477 9.67061 0.296007L10.9775 1.73958L11.1041 1.88455C11.3869 2.23184 11.5778 2.64438 11.6578 3.08507C11.7406 3.54112 11.7003 4.0092 11.5444 4.44444H14.4C15.3548 4.44444 16.2702 4.81931 16.9453 5.48611C17.6204 6.15291 18 7.05701 18 8V15.1111C18 15.602 17.5971 16 17.1 16H0.9C0.402944 16 0 15.602 0 15.1111V8C2.84338e-08 7.05701 0.379557 6.15291 1.05469 5.48611C1.72982 4.81931 2.64522 4.44444 3.6 4.44444H6.45645C6.32075 4.06554 6.27187 3.65995 6.31758 3.25781C6.37545 2.7494 6.58015 2.26819 6.90732 1.87153L6.93369 1.84115L8.32852 0.296875L8.39531 0.230035C8.55981 0.082779 8.77488 0.000191169 8.99912 1.43301e-07ZM5.38154 9.77778C5.17706 9.77355 4.97386 9.81851 4.79092 9.90885C4.60817 9.99917 4.45043 10.1321 4.33125 10.296C4.04161 10.6946 3.65756 11.0176 3.21328 11.237C2.77996 11.4509 2.30165 11.559 1.81758 11.5547H1.8V14.2222H16.2V11.5547C16.1944 11.5546 16.188 11.5557 16.1824 11.5556C15.6983 11.5599 15.22 11.4509 14.7867 11.237C14.3424 11.0176 13.9584 10.6946 13.6687 10.296C13.5496 10.1321 13.3918 9.99917 13.2091 9.90885C13.0261 9.81851 12.8229 9.77355 12.6185 9.77778C12.6062 9.77803 12.5938 9.77803 12.5815 9.77778C12.3771 9.77355 12.1739 9.81851 11.9909 9.90885C11.8082 9.99917 11.6504 10.1321 11.5312 10.296C11.2416 10.6946 10.8576 11.0176 10.4133 11.237C9.97996 11.4509 9.50165 11.559 9.01758 11.5547L9.01846 11.5556C9.01231 11.5557 9.00614 11.5546 9 11.5547C8.99385 11.5546 8.98769 11.5557 8.98154 11.5556C8.49777 11.5597 8.01978 11.4508 7.58672 11.237C7.14244 11.0176 6.75839 10.6946 6.46875 10.296C6.34957 10.1321 6.19183 9.99917 6.00908 9.90885C5.82614 9.81851 5.62294 9.77355 5.41846 9.77778C5.40616 9.77803 5.39384 9.77803 5.38154 9.77778ZM3.6 6.22222C3.12261 6.22222 2.66491 6.40966 2.32734 6.74306C1.98978 7.07645 1.8 7.5285 1.8 8V9.77778C1.80615 9.77778 1.81231 9.77765 1.81846 9.77778C2.02294 9.78201 2.22614 9.73704 2.40908 9.6467C2.59183 9.55639 2.74957 9.4235 2.86875 9.25955C3.15839 8.861 3.54244 8.53797 3.98672 8.31858C4.41978 8.10479 4.89777 7.99582 5.38154 8H5.41758C5.90165 7.99568 6.37996 8.10466 6.81328 8.31858C7.25756 8.53797 7.64161 8.861 7.93125 9.25955C8.05043 9.4235 8.20817 9.55639 8.39092 9.6467C8.57386 9.73704 8.77706 9.78201 8.98154 9.77778C8.99384 9.77753 9.00616 9.77753 9.01846 9.77778C9.22294 9.78201 9.42614 9.73704 9.60908 9.6467C9.79183 9.55639 9.94957 9.4235 10.0687 9.25955C10.3584 8.861 10.7424 8.53797 11.1867 8.31858C11.6198 8.10479 12.0978 7.99582 12.5815 8H12.6176C13.1017 7.99568 13.58 8.10466 14.0133 8.31858C14.4576 8.53797 14.8416 8.861 15.1312 9.25955C15.2504 9.4235 15.4082 9.55639 15.5909 9.6467C15.7739 9.73704 15.9771 9.78201 16.1815 9.77778C16.1877 9.77765 16.1938 9.77778 16.2 9.77778V8C16.2 7.5285 16.0102 7.07645 15.6727 6.74306C15.3351 6.40966 14.8774 6.22222 14.4 6.22222H3.6ZM8.29863 2.99913C8.19187 3.13045 8.12519 3.28915 8.10615 3.4566C8.08689 3.62611 8.11737 3.79768 8.19404 3.95052C8.27073 4.10331 8.39039 4.23105 8.53857 4.31858C8.68677 4.4061 8.85731 4.45002 9.02988 4.44444C9.20251 4.43885 9.3703 4.3843 9.5124 4.28733C9.65438 4.19041 9.76508 4.05493 9.83145 3.89757C9.89781 3.74008 9.91643 3.56635 9.88594 3.39844C9.85539 3.23069 9.77672 3.07532 9.65918 2.95052C9.65522 2.94632 9.65163 2.94178 9.64775 2.9375L9 2.22222L8.29863 2.99913Z" fill="#444050"/>
</svg>
