<svg width="18" height="19" viewBox="0 0 18 19" fill="none" xmlns="http://www.w3.org/2000/svg">
<path fill-rule="evenodd" clip-rule="evenodd" d="M11.8322 10.6669C12.3931 10.668 12.9332 10.8259 13.4016 11.1081C13.872 10.826 14.4153 10.6714 14.978 10.6724C15.7847 10.6739 16.5521 10.9934 17.1183 11.552C17.3999 11.8299 17.623 12.1604 17.7736 12.5224C17.9242 12.8843 18.0006 13.2725 18 13.6631C17.9994 14.0537 17.9211 14.441 17.7694 14.8025C17.6182 15.1627 17.3951 15.4896 17.1141 15.766L17.1155 15.7674L14.168 18.6853C13.9649 18.8863 13.6878 19.0002 13.3987 19C13.1098 18.9998 12.8323 18.8865 12.6295 18.6853L9.67922 15.7564C9.39814 15.4787 9.17705 15.1489 9.02672 14.7874C8.87627 14.4254 8.79956 14.0372 8.80031 13.6466C8.80107 13.256 8.87908 12.8687 9.03094 12.5072C9.18276 12.1459 9.40514 11.8165 9.68765 11.5396C10.2561 10.9827 11.0252 10.6653 11.8322 10.6669ZM11.828 12.778C11.6067 12.7776 11.3873 12.8647 11.2177 13.0309C11.1389 13.108 11.0741 13.2019 11.0292 13.3085C10.9843 13.4155 10.9605 13.5325 10.9603 13.6508C10.9601 13.769 10.9833 13.8858 11.0278 13.993C11.0499 14.0461 11.0767 14.0963 11.108 14.1428L11.2148 14.272L11.2162 14.2734L13.4002 16.4408L15.5784 14.2844L15.5827 14.2802C15.6616 14.2029 15.7262 14.1082 15.7711 14.0012C15.8159 13.8944 15.8397 13.7784 15.84 13.6604C15.8402 13.5422 15.817 13.4253 15.7725 13.3181C15.7279 13.211 15.6628 13.1154 15.5841 13.0378C15.4149 12.8708 15.195 12.7839 14.9737 12.7835C14.7527 12.7832 14.533 12.869 14.3634 13.035L14.1708 13.2261C13.9675 13.4277 13.6898 13.5411 13.4002 13.5408C13.1106 13.5405 12.8337 13.4267 12.6309 13.2247L12.4341 13.0295C12.2656 12.8653 12.0473 12.7785 11.828 12.778Z" fill="#444050"/>
<path fill-rule="evenodd" clip-rule="evenodd" d="M11.6395 0C12.236 0 12.7195 0.472588 12.7195 1.05556V1.77713H13.4002C14.1646 1.7773 14.8901 2.0851 15.4195 2.61965C15.948 3.15347 16.2394 3.87076 16.2394 4.61118V8.16681C16.2393 8.74971 15.7558 9.22237 15.1594 9.22237H2.16V15.2781C2.16007 15.4802 2.23972 15.6675 2.37094 15.8003C2.5014 15.9321 2.67201 15.9996 2.84062 15.9996H7.67953C8.27587 15.9996 8.75932 16.4724 8.75953 17.0552C8.75953 17.6382 8.276 18.1107 7.67953 18.1107H2.84062C2.07572 18.1107 1.34948 17.8032 0.819844 17.2682C0.291482 16.7345 7.34483e-05 16.0184 0 15.2781V4.61118C0 3.87077 0.291379 3.15347 0.819844 2.61965C1.34944 2.08493 2.07594 1.77713 2.84062 1.77713H3.51984V1.05556C3.51984 0.472592 4.00338 6.59892e-06 4.59984 0C5.19631 0 5.67984 0.472588 5.67984 1.05556V1.77713H10.5595V1.05556C10.5595 0.472601 11.0431 1.99778e-05 11.6395 0ZM2.84062 3.88824C2.67201 3.88824 2.5014 3.95574 2.37094 4.08753C2.23935 4.22049 2.16 4.40865 2.16 4.61118V7.11126H14.0794V4.61118C14.0794 4.40864 14 4.2205 13.8684 4.08753C13.7381 3.95591 13.5686 3.88841 13.4002 3.88824H12.7195V4.61118C12.7195 5.19412 12.236 5.66674 11.6395 5.66674C11.0431 5.66672 10.5596 5.19411 10.5595 4.61118V3.88824H5.67984V4.61118C5.6798 5.19412 5.19629 5.66674 4.59984 5.66674C4.00341 5.66673 3.51988 5.19411 3.51984 4.61118V3.88824H2.84062Z" fill="#444050"/>
</svg>
