<svg width="18" height="19" viewBox="0 0 18 19" fill="none" xmlns="http://www.w3.org/2000/svg">
<path fill-rule="evenodd" clip-rule="evenodd" d="M18 17.2559C18 17.7277 17.8211 18.1749 17.511 18.4998C17.2016 18.8238 16.7878 19 16.3636 19H1.63636C1.21217 19 0.798354 18.8238 0.488991 18.4998C0.178891 18.1749 0 17.7277 0 17.2559V7.80265H18V17.2559ZM2.87642 13.8595C2.42467 13.8595 2.05843 14.2296 2.05824 14.6856C2.05824 15.1419 2.42455 15.5117 2.87642 15.5117H2.88281C3.33433 15.5113 3.70099 15.1416 3.70099 14.6856C3.7008 14.2298 3.33422 13.86 2.88281 13.8595H2.87642ZM6.55824 13.8595C6.10649 13.8595 5.74025 14.2296 5.74006 14.6856C5.74006 15.1419 6.10637 15.5117 6.55824 15.5117H6.56463C7.01615 15.5113 7.38281 15.1416 7.38281 14.6856C7.38262 14.2298 7.01603 13.86 6.56463 13.8595H6.55824ZM10.2449 13.8595C9.79342 13.8599 9.42686 14.2298 9.42667 14.6856C9.42667 15.1416 9.7933 15.5113 10.2449 15.5117H10.2512C10.7031 15.5117 11.0694 15.1419 11.0694 14.6856C11.0692 14.2296 10.703 13.8595 10.2512 13.8595H10.2449ZM2.86364 10.005C2.41177 10.005 2.04545 10.3749 2.04545 10.8311C2.04555 11.2872 2.41183 11.6572 2.86364 11.6572H2.87962C3.33141 11.6572 3.6977 11.2872 3.6978 10.8311C3.6978 10.3749 3.33147 10.005 2.87962 10.005H2.86364ZM6.55824 10.005C6.10637 10.005 5.74006 10.3749 5.74006 10.8311C5.74015 11.2872 6.10643 11.6572 6.55824 11.6572H6.56463C7.01609 11.6568 7.38272 11.287 7.38281 10.8311C7.38281 10.3751 7.01615 10.0054 6.56463 10.005H6.55824ZM10.2401 10.005C9.78819 10.005 9.42187 10.3749 9.42187 10.8311C9.42197 11.2872 9.78825 11.6572 10.2401 11.6572H10.2464C10.6979 11.6568 11.0645 11.287 11.0646 10.8311C11.0646 10.3751 10.698 10.0054 10.2464 10.005H10.2401ZM13.9267 10.005C13.4751 10.0054 13.1085 10.3751 13.1085 10.8311C13.1086 11.287 13.4752 11.6568 13.9267 11.6572H13.9331C14.3849 11.6572 14.7511 11.2872 14.7512 10.8311C14.7512 10.3749 14.3849 10.005 13.9331 10.005H13.9267Z" fill="white"/>
<path d="M3.27273 1.83611C3.27292 2.29218 3.63916 2.66219 4.09091 2.66219C4.54266 2.66219 4.9089 2.29218 4.90909 1.83611V0H13.0909V1.83611C13.0911 2.29218 13.4573 2.66219 13.9091 2.66219C14.3608 2.66219 14.7271 2.29218 14.7273 1.83611V0H16.3636C16.7192 0 17.1454 0.209273 17.511 0.592137C17.8211 0.917037 18 1.36432 18 1.83611V6.15048H0V1.83611C0 1.36432 0.178946 0.917037 0.488991 0.592137C0.854648 0.209273 1.28075 0 1.63636 0H3.27273V1.83611Z" fill="white"/>
</svg>
