<svg width="18" height="21" viewBox="0 0 18 21" fill="none" xmlns="http://www.w3.org/2000/svg">
<path d="M3.68678 15.5906C3.94829 15.5906 4.1603 15.8044 4.16046 16.0679C4.16046 16.3315 3.94839 16.5451 3.68678 16.5451H3.68215C3.42055 16.5451 3.20847 16.3315 3.20847 16.0679C3.20864 15.8044 3.42065 15.5906 3.68215 15.5906H3.68678Z" fill="#444050"/>
<path d="M6.88415 15.5906C7.14565 15.5906 7.35767 15.8044 7.35783 16.0679C7.35783 16.3315 7.14576 16.5451 6.88415 16.5451H6.87952C6.61791 16.5451 6.40584 16.3315 6.40584 16.0679C6.40601 15.8044 6.61802 15.5906 6.87952 15.5906H6.88415Z" fill="#444050"/>
<path d="M10.0871 15.5906C10.3485 15.5906 10.5606 15.8044 10.5608 16.0679C10.5608 16.3314 10.3486 16.5451 10.0871 16.5451H10.0815C9.81998 16.5451 9.60783 16.3314 9.60783 16.0679C9.608 15.8045 9.82008 15.5907 10.0815 15.5906H10.0871Z" fill="#444050"/>
<path d="M3.68493 12.2497C3.94643 12.2497 4.15845 12.4635 4.15861 12.727C4.15861 12.9905 3.94653 13.2042 3.68493 13.2042H3.67105C3.40944 13.2042 3.19737 12.9906 3.19737 12.727C3.19753 12.4635 3.40955 12.2497 3.67105 12.2497H3.68493Z" fill="#444050"/>
<path d="M6.88415 12.2497C7.14565 12.2497 7.35767 12.4635 7.35783 12.727C7.35783 12.9906 7.14576 13.2042 6.88415 13.2042H6.87952C6.61791 13.2042 6.40584 12.9906 6.40584 12.727C6.40601 12.4635 6.61802 12.2497 6.87952 12.2497H6.88415Z" fill="#444050"/>
<path d="M10.0815 12.2497C10.343 12.2497 10.555 12.4635 10.5552 12.727C10.5552 12.9906 10.3431 13.2042 10.0815 13.2042H10.0769C9.81528 13.2042 9.60321 12.9906 9.60321 12.727C9.60337 12.4635 9.81539 12.2497 10.0769 12.2497H10.0815Z" fill="#444050"/>
<path d="M13.2844 12.2497C13.5459 12.2497 13.758 12.4635 13.7581 12.727C13.7581 12.9905 13.546 13.2042 13.2844 13.2042H13.2789C13.0173 13.2042 12.8052 12.9905 12.8052 12.727C12.8054 12.4636 13.0174 12.2498 13.2789 12.2497H13.2844Z" fill="#444050"/>
<path fill-rule="evenodd" clip-rule="evenodd" d="M13.2632 0C13.5248 0 13.7368 0.213682 13.7368 0.477273V2.22696H15.3947C16.0914 2.22696 16.7561 2.51682 17.2432 3.02583C17.7296 3.53423 18 4.22044 18 4.93213V18.2958C17.9999 19.0075 17.7297 19.6937 17.2432 20.2021C16.7561 20.711 16.0913 21 15.3947 21H2.60526C1.90867 21 1.24392 20.711 0.756785 20.2021C0.270277 19.6937 7.88488e-05 19.0075 0 18.2958V4.93213C0 4.22044 0.270352 3.53423 0.756785 3.02583C1.24393 2.51682 1.90863 2.22696 2.60526 2.22696H4.26316V0.477273C4.26316 0.213682 4.47523 0 4.73684 0C4.99845 0 5.21053 0.213682 5.21053 0.477273V2.22696H12.7895V0.477273C12.7895 0.213682 13.0015 0 13.2632 0ZM0.947368 18.2958C0.947447 18.7652 1.12583 19.2124 1.43863 19.5393C1.75099 19.8657 2.17124 20.0455 2.60526 20.0455H15.3947C15.8288 20.0455 16.249 19.8657 16.5614 19.5393C16.8742 19.2124 17.0526 18.7652 17.0526 18.2958V9.86333H0.947368V18.2958ZM2.60526 3.18151C2.17124 3.18151 1.75098 3.36223 1.43863 3.68861C1.12595 4.01554 0.947368 4.4627 0.947368 4.93213V8.90878H17.0526V4.93213C17.0526 4.4627 16.8741 4.01554 16.5614 3.68861C16.249 3.36223 15.8288 3.18151 15.3947 3.18151H13.7368V4.93213C13.7367 5.19558 13.5247 5.4094 13.2632 5.4094C13.0017 5.4094 12.7896 5.19558 12.7895 4.93213V3.18151H5.21053V4.93213C5.21036 5.19558 4.99835 5.4094 4.73684 5.4094C4.47534 5.4094 4.26332 5.19558 4.26316 4.93213V3.18151H2.60526Z" fill="#444050"/>
</svg>
