<svg width="18" height="19" viewBox="0 0 18 19" fill="none" xmlns="http://www.w3.org/2000/svg">
<path fill-rule="evenodd" clip-rule="evenodd" d="M12.2611 0C12.8576 0 13.3411 0.472588 13.3411 1.05556V1.87609H14.1244C14.9154 1.87609 15.6676 2.1932 16.2169 2.74609C16.7652 3.29822 17.0677 4.04146 17.0677 4.8091V10.4387C17.0674 11.0215 16.584 11.4943 15.9877 11.4943C15.3917 11.494 14.9079 11.0213 14.9077 10.4387V9.61683H2.16001V16.0684C2.16013 16.2958 2.2501 16.5078 2.40048 16.6594C2.55001 16.8099 2.74615 16.8888 2.94329 16.8889H8.06768C8.66415 16.8889 9.14768 17.3615 9.14768 17.9444C9.14768 18.5274 8.66415 19 8.06768 19H2.94329C2.15212 18.9999 1.40009 18.6831 0.850783 18.13C0.302603 17.578 0.000120224 16.8358 0 16.0684V4.8091C0 4.04146 0.302481 3.29822 0.850783 2.74609C1.40007 2.19308 2.15223 1.87615 2.94329 1.87609H3.72657V1.05556C3.72657 0.47275 4.21033 0.000262139 4.80658 0C5.40304 0 5.88658 0.472588 5.88658 1.05556V1.87609H11.1811V1.05556C11.1811 0.472615 11.6647 4.38832e-05 12.2611 0ZM2.94329 3.9872C2.74615 3.98726 2.55001 4.06615 2.40048 4.21672C2.24986 4.36843 2.16001 4.5814 2.16001 4.8091V7.50571H14.9077V4.8091C14.9077 4.58136 14.8179 4.36844 14.6672 4.21672C14.5177 4.06622 14.3215 3.9872 14.1244 3.9872H13.3411V4.8091C13.3409 5.39186 12.8574 5.86466 12.2611 5.86466C11.6649 5.86461 11.1814 5.39183 11.1811 4.8091V3.9872H5.88658V4.8091C5.88632 5.39186 5.40289 5.86466 4.80658 5.86466C4.21049 5.86439 3.72683 5.3917 3.72657 4.8091V3.9872H2.94329Z" fill="#444050"/>
<path d="M16.1452 13.4556C16.5606 13.0377 17.2445 13.0278 17.6724 13.4336C18.1004 13.8396 18.1102 14.5079 17.6949 14.9262L13.9683 18.6798C13.765 18.8845 13.4853 18.9999 13.1935 19C12.9016 19 12.622 18.8843 12.4186 18.6798L10.5539 16.8037C10.1385 16.3853 10.1498 15.7171 10.5778 15.3111C11.0059 14.905 11.6896 14.9147 12.105 15.333L13.1921 16.4285L16.1452 13.4556Z" fill="#444050"/>
</svg>
