<svg width="18" height="19" viewBox="0 0 18 19" fill="none" xmlns="http://www.w3.org/2000/svg">
<path fill-rule="evenodd" clip-rule="evenodd" d="M14.2563 10.8263C14.8528 10.8263 15.3363 11.2989 15.3363 11.8819V12.3341C15.5681 12.4278 15.7845 12.5552 15.9846 12.7065L16.3755 12.4852C16.8908 12.192 17.5518 12.3624 17.852 12.866C18.1522 13.3696 17.9777 14.0156 17.4625 14.3091L17.0631 14.5359C17.0804 14.6602 17.0926 14.7857 17.0927 14.9125C17.0927 15.039 17.0817 15.165 17.0645 15.2891L17.4625 15.5158C17.978 15.8091 18.1535 16.4565 17.8534 16.9604C17.5534 17.4638 16.8922 17.634 16.3769 17.3411L15.986 17.1184C15.7858 17.27 15.5683 17.3956 15.3363 17.4895V17.9444C15.3363 18.5274 14.8528 19 14.2563 19C13.66 18.9999 13.1763 18.5273 13.1763 17.9444V17.4895C12.9444 17.3956 12.7268 17.27 12.5267 17.1184L12.1371 17.3411C11.6218 17.634 10.9606 17.4638 10.6606 16.9604C10.3606 16.4565 10.536 15.8091 11.0515 15.5158L11.4481 15.2891C11.4309 15.165 11.42 15.039 11.42 14.9125C11.42 14.7852 11.4321 14.6593 11.4495 14.5345L11.0515 14.3091C10.536 14.0159 10.3606 13.3698 10.6606 12.866C10.9606 12.3624 11.6218 12.1923 12.1371 12.4852L12.5267 12.7065C12.7269 12.5549 12.9443 12.4279 13.1763 12.3341V11.8819C13.1763 11.299 13.66 10.8264 14.2563 10.8263ZM14.2563 14.2363C14.08 14.2363 13.9086 14.3056 13.781 14.4314C13.6533 14.5575 13.5801 14.7304 13.5799 14.9125C13.5799 15.0948 13.6531 15.2687 13.781 15.3949C13.9086 15.5207 14.08 15.59 14.2563 15.5901C14.4327 15.5901 14.604 15.5207 14.7316 15.3949C14.8596 15.2687 14.9327 15.0949 14.9327 14.9125C14.9325 14.7303 14.8595 14.5575 14.7316 14.4314C14.604 14.3056 14.4327 14.2363 14.2563 14.2363Z" fill="#444050"/>
<path fill-rule="evenodd" clip-rule="evenodd" d="M11.621 0C12.2173 0.000276093 12.701 0.472759 12.701 1.05556V1.73177H13.3774C14.1328 1.73181 14.8557 2.02852 15.3869 2.5523C15.9176 3.07577 16.2138 3.78426 16.2138 4.52047V8.8499C16.2138 9.43287 15.7303 9.90545 15.1338 9.90545C14.6036 9.90534 14.1633 9.53214 14.0721 9.03957H2.15996V14.9125C2.15996 15.0948 2.2332 15.2687 2.36105 15.3949C2.48863 15.5207 2.66008 15.59 2.83636 15.5901H8.10689C8.70335 15.5901 9.18687 16.0626 9.18687 16.6456C9.1867 17.2284 8.70324 17.7012 8.10689 17.7012H2.83636C2.08106 17.7011 1.35802 17.4044 0.826861 16.8806C0.296267 16.3572 0 15.6486 0 14.9125V4.52047C0 3.78432 0.296233 3.07576 0.826861 2.5523C1.35802 2.02857 2.08107 1.73187 2.83636 1.73177H3.51416V1.05556C3.51416 0.472588 3.99768 0 4.59414 0C5.1903 0.000339515 5.67412 0.472798 5.67412 1.05556V1.73177H10.5411V1.05556C10.5411 0.472588 11.0246 0 11.621 0ZM2.83636 3.84288C2.66008 3.84298 2.48863 3.91226 2.36105 4.03805C2.23317 4.16423 2.15996 4.33811 2.15996 4.52047V6.92846H14.0538V4.52047C14.0538 4.33806 13.9807 4.16424 13.8527 4.03805C13.7251 3.9122 13.5538 3.84292 13.3774 3.84288H12.701V4.52047C12.7007 5.10303 12.2171 5.57575 11.621 5.57603C11.0248 5.57603 10.5414 5.1032 10.5411 4.52047V3.84288H5.67412V4.52047C5.67383 5.10299 5.19012 5.57569 4.59414 5.57603C3.99786 5.57603 3.51445 5.1032 3.51416 4.52047V3.84288H2.83636Z" fill="#444050"/>
</svg>
