<svg width="18" height="18" viewBox="0 0 18 18" fill="none" xmlns="http://www.w3.org/2000/svg">
<path fill-rule="evenodd" clip-rule="evenodd" d="M13.6898 9.37881C14.8329 9.37891 15.9296 9.8335 16.7379 10.6418C17.546 11.4501 18 12.5468 18 13.6898C17.9999 14.8329 17.5462 15.9296 16.7379 16.7379C15.9296 17.5462 14.8329 17.9999 13.6898 18C12.5468 18 11.4501 17.546 10.6418 16.7379C9.8335 15.9296 9.37891 14.8329 9.37881 13.6898C9.37881 12.5466 9.83342 11.4502 10.6418 10.6418C11.4502 9.83342 12.5466 9.37881 13.6898 9.37881ZM12.7898 11.3476C12.4647 11.4725 12.1655 11.6634 11.9145 11.9145C11.4436 12.3853 11.1788 13.024 11.1788 13.6898C11.1789 14.3555 11.4438 14.9936 11.9145 15.4644C12.3853 15.9352 13.024 16.2 13.6898 16.2C14.3555 16.1999 14.9936 15.9351 15.4644 15.4644C15.7152 15.2135 15.9063 14.9147 16.0312 14.5898H13.6898C13.1929 14.5898 12.79 14.1867 12.7898 13.6898V11.3476ZM14.5898 12.7898H16.0312C15.9063 12.4647 15.7154 12.1655 15.4644 11.9145C15.2136 11.6637 14.9146 11.4733 14.5898 11.3484V12.7898Z" fill="#444050"/>
<path fill-rule="evenodd" clip-rule="evenodd" d="M11.1313 0C11.6284 0 12.0313 0.402944 12.0313 0.9V1.70508H12.8364C13.5272 1.70508 14.1901 1.97963 14.6786 2.46797C15.1671 2.95646 15.4423 3.61933 15.4424 4.31016V7.72119C15.4423 8.21809 15.0393 8.62104 14.5424 8.62119H1.8V14.5424C1.80007 14.7559 1.8846 14.961 2.03555 15.1119C2.18652 15.2629 2.3916 15.3474 2.60508 15.3475H8.39883C8.89588 15.3475 9.29883 15.7504 9.29883 16.2475C9.29878 16.7445 8.89585 17.1475 8.39883 17.1475H2.60508C1.91421 17.1474 1.25142 16.8731 0.762891 16.3846C0.274374 15.8961 7.34098e-05 15.2332 0 14.5424V4.31016C9.80076e-05 3.61933 0.274396 2.95646 0.762891 2.46797C1.25142 1.97949 1.91423 1.70513 2.60508 1.70508H3.41016V0.9C3.41016 0.403067 3.81327 0.000199982 4.31016 0C4.80721 0 5.21016 0.402944 5.21016 0.9V1.70508H10.2313V0.9C10.2313 0.403021 10.6344 0.000125104 11.1313 0ZM2.60508 3.50508C2.39158 3.50513 2.18652 3.59053 2.03555 3.7415C1.88483 3.8924 1.8001 4.09688 1.8 4.31016V6.82119H13.6424V4.31016C13.6423 4.09674 13.5569 3.89243 13.406 3.7415C13.2549 3.59049 13.05 3.50508 12.8364 3.50508H12.0313V4.31016C12.0313 4.80721 11.6284 5.21016 11.1313 5.21016C10.6344 5.21003 10.2313 4.80714 10.2313 4.31016V3.50508H5.21016V4.31016C5.21016 4.80721 4.80721 5.21016 4.31016 5.21016C3.81327 5.20996 3.41016 4.80709 3.41016 4.31016V3.50508H2.60508Z" fill="#444050"/>
</svg>
