<svg width="18" height="17" viewBox="0 0 18 17" fill="none" xmlns="http://www.w3.org/2000/svg">
<path d="M9 7.77966C9.64136 7.77966 10.1613 8.29567 10.1613 8.9322V8.94121C10.1611 9.57757 9.64124 10.0937 9 10.0937C8.35876 10.0937 7.83891 9.57757 7.83871 8.94121V8.9322C7.83871 8.29567 8.35864 7.77966 9 7.77966Z" fill="#444050"/>
<path fill-rule="evenodd" clip-rule="evenodd" d="M10.7419 0C11.5119 0 12.2501 0.303788 12.7946 0.844147C13.3391 1.38451 13.6452 2.11717 13.6452 2.88136V3.45763H15.0968C15.8668 3.45763 16.605 3.76142 17.1494 4.30177C17.6939 4.84213 18 5.5748 18 6.33898V14.1186C18 14.8828 17.6939 15.6155 17.1494 16.1559C16.605 16.6962 15.8668 17 15.0968 17H2.90323C2.13324 17 1.39501 16.6962 0.850554 16.1559C0.306094 15.6155 0 14.8828 0 14.1186V6.33898C0 5.5748 0.306094 4.84213 0.850554 4.30177C1.39501 3.76142 2.13324 3.45763 2.90323 3.45763H4.35484V2.88136C4.35484 2.11717 4.66093 1.38451 5.20539 0.844147C5.74985 0.303788 6.48808 0 7.25806 0H10.7419ZM15.6774 11.5637C13.7201 12.3119 11.6471 12.7294 9.54435 12.7905L9 12.7984C6.71127 12.7984 4.44861 12.3764 2.32258 11.5637V14.1186C2.32258 14.2715 2.3838 14.418 2.49269 14.5261C2.60158 14.6342 2.74923 14.6949 2.90323 14.6949H15.0968C15.2508 14.6949 15.3984 14.6342 15.5073 14.5261C15.6162 14.418 15.6774 14.2715 15.6774 14.1186V11.5637ZM2.90323 5.76271C2.74923 5.76271 2.60158 5.82347 2.49269 5.93154C2.3838 6.03961 2.32258 6.18615 2.32258 6.33898V9.06727C4.41949 10.0049 6.69474 10.4933 9 10.4933L9.47631 10.4866C11.6182 10.4243 13.7251 9.94025 15.6774 9.06727V6.33898C15.6774 6.18615 15.6162 6.03961 15.5073 5.93154C15.4255 5.8504 15.3219 5.79606 15.2102 5.77397L15.0968 5.76271H2.90323ZM7.25806 2.30508C7.10407 2.30508 6.95642 2.36584 6.84753 2.47391C6.73864 2.58199 6.67742 2.72852 6.67742 2.88136V3.45763H11.3226V2.88136C11.3226 2.72852 11.2614 2.58199 11.1525 2.47391C11.0436 2.36584 10.8959 2.30508 10.7419 2.30508H7.25806Z" fill="#444050"/>
</svg>
