<svg width="18" height="18" viewBox="0 0 18 18" fill="none" xmlns="http://www.w3.org/2000/svg">
<path fill-rule="evenodd" clip-rule="evenodd" d="M15.1481 9.96494C15.5225 9.96495 15.8935 10.038 16.2394 10.1813C16.5852 10.3246 16.9004 10.5352 17.1651 10.8C17.4295 11.0647 17.6394 11.3793 17.7826 11.7249C17.9257 12.0707 17.9999 12.4421 18 12.8164C17.9999 13.1908 17.9259 13.563 17.7826 13.9089C17.6399 14.2531 17.4302 14.5655 17.1673 14.8295L14.3522 17.6712C14.1443 17.8808 13.8612 18 13.5659 18H11.0742C10.4629 18 9.96734 17.5036 9.96678 16.8923V14.4C9.96678 14.1046 10.0848 13.8205 10.2945 13.6125L13.1312 10.8L13.3388 10.6118C13.5552 10.4342 13.7973 10.2888 14.0569 10.1813C14.4029 10.038 14.7737 9.96494 15.1481 9.96494ZM15.1481 12.1803C15.0647 12.1803 14.9819 12.196 14.9048 12.2279C14.8277 12.2599 14.7573 12.3073 14.6982 12.3664L14.6939 12.3696L12.1816 14.8608V15.7846H13.1041L15.5948 13.2707L15.598 13.2674C15.657 13.2084 15.7045 13.1379 15.7365 13.0608C15.7684 12.9837 15.7851 12.8998 15.7851 12.8164C15.7851 12.7331 15.7683 12.65 15.7365 12.573C15.7045 12.4959 15.657 12.4254 15.598 12.3664C15.539 12.3074 15.4685 12.2599 15.3915 12.2279C15.3144 12.1961 15.2315 12.1803 15.1481 12.1803Z" fill="#444050"/>
<path d="M7.25011 0.103923C8.88793 -0.153412 10.566 0.0696574 12.08 0.745386C13.5937 1.42109 14.8796 2.52082 15.7819 3.9116C16.6841 5.30248 17.1649 6.9256 17.1651 8.58357C17.1649 9.19505 16.6691 9.69223 16.0577 9.69234C15.4464 9.69234 14.9508 9.19594 14.9502 8.58466C14.9501 7.35447 14.5933 6.14974 13.9239 5.11772C13.2544 4.08577 12.3001 3.26955 11.177 2.76821C10.0537 2.26696 8.80908 2.10135 7.59402 2.29225C6.37894 2.48322 5.24558 3.02289 4.33011 3.84453C3.41468 4.66621 2.75627 5.73546 2.43536 6.92312C2.11462 8.11066 2.14382 9.36627 2.5208 10.5372C2.89791 11.7081 3.60702 12.7456 4.56047 13.5227C5.51302 14.2988 6.67013 14.7826 7.89142 14.916C8.11982 14.9403 8.35071 14.9539 8.58249 14.9539C9.19405 14.9539 9.68992 15.4498 9.68992 16.0615C9.68936 16.6728 9.1937 17.1692 8.58249 17.1692C8.26952 17.1692 7.96088 17.1517 7.65782 17.1195H7.65566C6.00757 16.9404 4.44624 16.2868 3.16104 15.2394C1.87601 14.1921 0.921276 12.7946 0.413 11.2165C-0.0951771 9.63817 -0.135142 7.94514 0.297282 6.3444C0.729866 4.74383 1.61692 3.30227 2.85065 2.1949C4.08447 1.08762 5.61255 0.361312 7.25011 0.103923Z" fill="#444050"/>
<path d="M8.58249 3.32314C9.19405 3.32321 9.68992 3.81911 9.68992 4.43083V8.12492L11.0266 9.46193C11.4588 9.89454 11.459 10.5969 11.0266 11.0294C10.5943 11.4613 9.89302 11.4612 9.46065 11.0294L7.7995 9.36782C7.59205 9.16033 7.47532 8.87806 7.47505 8.58466V4.43083C7.47505 3.81907 7.97087 3.32314 8.58249 3.32314Z" fill="#444050"/>
</svg>
