<svg width="18" height="18" viewBox="0 0 18 18" fill="none" xmlns="http://www.w3.org/2000/svg">
<path fill-rule="evenodd" clip-rule="evenodd" d="M14.4 10.8003C15.3545 10.8004 16.2703 11.179 16.9453 11.8538C17.6204 12.5289 18 13.4454 18 14.4001C17.9999 15.3547 17.6203 16.2704 16.9453 16.9454C16.2703 17.6202 15.3545 17.9999 14.4 18C13.4454 17.9999 12.5287 17.6203 11.8536 16.9454C11.1788 16.2704 10.8002 15.3545 10.8 14.4001C10.8 13.4455 11.1787 12.5289 11.8536 11.8538C12.5287 11.1788 13.4454 10.8004 14.4 10.8003ZM14.598 15.7674C14.8916 15.7248 15.1667 15.5913 15.379 15.3791C15.5913 15.1667 15.7247 14.8918 15.7673 14.5981L14.598 15.7674ZM14.201 13.0307C13.9077 13.0734 13.6332 13.2082 13.4211 13.4201C13.2088 13.6324 13.0731 13.9075 13.0306 14.2011L14.201 13.0307Z" fill="#444050"/>
<path d="M6.95883 0.155336C8.64693 -0.170261 10.3941 0.0186255 11.9737 0.697264C13.5533 1.37602 14.8935 2.51308 15.8192 3.96181C16.7449 5.41062 17.2139 7.10432 17.166 8.82293C17.149 9.43436 16.6394 9.91613 16.028 9.89921C15.4167 9.88192 14.9347 9.37262 14.9517 8.76127C14.9872 7.48624 14.6389 6.22981 13.9522 5.15491C13.2654 4.08015 12.2715 3.23552 11.0997 2.73193C9.92777 2.22846 8.63095 2.08907 7.37854 2.33062C6.12614 2.57227 4.9744 3.184 4.07387 4.08728C3.1734 4.99064 2.56459 6.14412 2.32689 7.39726C2.08927 8.65031 2.23409 9.94587 2.74119 11.1161C3.24839 12.2864 4.09489 13.2786 5.17182 13.962C6.24872 14.6454 7.50674 14.989 8.78154 14.9496C9.39298 14.9307 9.90379 15.4113 9.92276 16.0227C9.94168 16.634 9.46202 17.1447 8.85077 17.1639C7.13245 17.217 5.43675 16.7533 3.98517 15.8323C2.53363 14.9111 1.39119 13.5751 0.707544 11.9977C0.0239258 10.4202 -0.169932 8.67316 0.150456 6.98405C0.470863 5.29499 1.29161 3.74073 2.50537 2.52316C3.71912 1.30576 5.27086 0.481014 6.95883 0.155336Z" fill="#444050"/>
<path d="M8.58466 3.32361C9.19622 3.32383 9.69233 3.81967 9.69235 4.43126V8.12524L11.0294 9.46221C11.4619 9.89477 11.4619 10.597 11.0294 11.0296C10.5969 11.4617 9.89555 11.4616 9.46303 11.0296L7.8015 9.3681C7.59404 9.16051 7.4771 8.87843 7.47698 8.58496V4.43126C7.477 3.8197 7.97314 3.32387 8.58466 3.32361Z" fill="#444050"/>
</svg>
