<svg width="18" height="18" viewBox="0 0 18 18" fill="none" xmlns="http://www.w3.org/2000/svg">
<path fill-rule="evenodd" clip-rule="evenodd" d="M15.5 0C16.163 0 16.7994 0.26293 17.2682 0.731771C17.7371 1.20061 18 1.83696 18 2.5C18 3.16304 17.7371 3.79939 17.2682 4.26823C16.7994 4.73707 16.163 5 15.5 5C15.1848 5 14.8765 4.93837 14.5885 4.82552L10.0299 9.38411C10.6563 10.2948 11 11.3792 11 12.5C11 12.6998 10.9876 12.8983 10.9661 13.0951L13.5938 13.8828C13.6377 13.831 13.6833 13.7802 13.7318 13.7318C14.2006 13.2629 14.837 13 15.5 13C16.163 13 16.7994 13.2629 17.2682 13.7318C17.7371 14.2006 18 14.837 18 15.5C18 16.163 17.7371 16.7994 17.2682 17.2682C16.7994 17.7371 16.163 18 15.5 18C14.837 18 14.2006 17.7371 13.7318 17.2682C13.3341 16.8706 13.0862 16.3521 13.0195 15.7995L10.3906 15.0104C10.132 15.5144 9.79732 15.9813 9.38932 16.3893C8.35787 17.4208 6.95869 18 5.5 18C4.04131 18 2.64213 17.4208 1.61068 16.3893C0.579227 15.3579 0 13.9587 0 12.5C0 11.0413 0.579227 9.64213 1.61068 8.61068C2.01854 8.20282 2.48453 7.86671 2.98828 7.60807L2.20052 4.97917C1.9752 4.95195 1.75351 4.89711 1.54297 4.8099C1.23974 4.68426 0.963865 4.50032 0.731771 4.26823C0.499677 4.03614 0.315739 3.76026 0.190104 3.45703C0.0958028 3.22937 0.0357575 2.98914 0.0117188 2.74479L0 2.5C-4.15135e-09 2.1717 0.0644673 1.84628 0.190104 1.54297C0.315739 1.23974 0.499677 0.963865 0.731771 0.731771C0.963865 0.499676 1.23974 0.315739 1.54297 0.190104C1.84628 0.0644672 2.1717 0 2.5 0L2.74479 0.0117188C2.98914 0.0357575 3.22937 0.0958028 3.45703 0.190104C3.76026 0.315739 4.03613 0.499676 4.26823 0.731771C4.50032 0.963865 4.68426 1.23974 4.8099 1.54297C4.93553 1.84628 5 2.1717 5 2.5L4.98828 2.74479C4.96424 2.98914 4.9042 3.22937 4.8099 3.45703C4.68426 3.76026 4.50032 4.03614 4.26823 4.26823C4.21988 4.31658 4.16787 4.36085 4.11589 4.40495L4.90495 7.03255C5.10166 7.01115 5.30026 7 5.5 7L5.77214 7.00651C6.79525 7.05715 7.77816 7.39384 8.61458 7.96875L13.1732 3.41016C13.0607 3.12267 13 2.81467 13 2.5C13 1.83696 13.2629 1.20061 13.7318 0.731771C14.2006 0.26293 14.837 0 15.5 0ZM5.5 9C4.57174 9 3.68112 9.36836 3.02474 10.0247C2.36836 10.6811 2 11.5717 2 12.5C2 13.4283 2.36836 14.3189 3.02474 14.9753C3.68112 15.6316 4.57174 16 5.5 16C6.42826 16 7.31888 15.6316 7.97526 14.9753C8.63164 14.3189 9 13.4283 9 12.5C9 11.5717 8.63164 10.6811 7.97526 10.0247C7.40103 9.4505 6.64744 9.09656 5.84635 9.01693L5.5 9ZM15.5 15C15.3674 15 15.2396 15.0521 15.1458 15.1458C15.0521 15.2396 15 15.3674 15 15.5C15 15.6326 15.0521 15.7604 15.1458 15.8542C15.2396 15.9479 15.3674 16 15.5 16C15.6326 16 15.7604 15.9479 15.8542 15.8542C15.9479 15.7604 16 15.6326 16 15.5C16 15.3674 15.9479 15.2396 15.8542 15.1458C15.7604 15.0521 15.6326 15 15.5 15ZM2.5 2C2.43436 2 2.36924 2.01265 2.30859 2.03776C2.24793 2.06289 2.19226 2.0994 2.14583 2.14583C2.0994 2.19226 2.06289 2.24793 2.03776 2.30859C2.01265 2.36924 2 2.43436 2 2.5L2.00911 2.59766C2.01549 2.62968 2.02521 2.66109 2.03776 2.69141C2.06289 2.75207 2.0994 2.80774 2.14583 2.85417C2.19226 2.9006 2.24793 2.93711 2.30859 2.96224C2.36924 2.98735 2.43436 3 2.5 3C2.56564 3 2.63076 2.98735 2.69141 2.96224C2.75207 2.93711 2.80774 2.9006 2.85417 2.85417C2.9006 2.80774 2.93711 2.75207 2.96224 2.69141C2.98735 2.63076 3 2.56564 3 2.5L2.99089 2.40234C2.98451 2.37032 2.97479 2.33891 2.96224 2.30859C2.93711 2.24793 2.9006 2.19226 2.85417 2.14583C2.80774 2.0994 2.75207 2.06289 2.69141 2.03776C2.66109 2.02521 2.62968 2.01549 2.59766 2.00911L2.5 2ZM15.5 2C15.3674 2 15.2396 2.05207 15.1458 2.14583C15.0521 2.2396 15 2.36739 15 2.5C15 2.62181 15.0451 2.73847 15.125 2.82943C15.1328 2.83676 15.1421 2.84263 15.1497 2.85026C15.1569 2.85744 15.1624 2.86635 15.1693 2.8737C15.2604 2.95438 15.3776 3 15.5 3C15.6326 3 15.7604 2.94794 15.8542 2.85417C15.9479 2.7604 16 2.63261 16 2.5C16 2.36739 15.9479 2.2396 15.8542 2.14583C15.7604 2.05207 15.6326 2 15.5 2Z" fill="#444050"/>
</svg>
