<svg width="18" height="17" viewBox="0 0 18 17" fill="none" xmlns="http://www.w3.org/2000/svg">
<path fill-rule="evenodd" clip-rule="evenodd" d="M8.21812 0.0174753C8.33498 0.0286566 8.45056 0.051278 8.56266 0.0856289L8.7279 0.145919L8.88611 0.221936C8.9886 0.27781 9.08532 0.343633 9.17439 0.418533L9.30272 0.538239L9.41786 0.669304C9.52383 0.802652 9.60948 0.950837 9.67275 1.10881L14.0164 11.7521C14.1929 12.1789 14.1977 12.6576 14.0305 13.0881C13.862 13.5214 13.5297 13.8757 13.1006 14.0694L13.0944 14.0729L6.79865 16.8532L6.79514 16.8549C6.57951 16.9489 6.34631 16.9984 6.11045 17C5.87465 17.0015 5.64081 16.9548 5.42401 16.8637C5.2074 16.7725 5.01201 16.6388 4.84919 16.4713C4.68894 16.3065 4.56314 16.112 4.47829 15.8999L0.135507 5.25569L0.136386 5.25482C-0.0398271 4.82816 -0.0457981 4.35002 0.121444 3.91971L0.191759 3.76068C0.37448 3.39916 0.676332 3.10829 1.05047 2.93934L1.0575 2.93585L7.35326 0.15553L7.35853 0.153783C7.57401 0.0601626 7.80675 0.0110198 8.04234 0.00961141L8.21812 0.0174753ZM1.79932 4.56542C1.79901 4.56656 1.79934 4.56817 1.79932 4.56979L1.8002 4.57591L1.80371 4.5829L6.13067 15.1895L12.3517 12.4415C12.3519 12.4405 12.3526 12.4394 12.3526 12.438L12.3482 12.4249L8.02036 1.81918L1.79932 4.56542Z" fill="#444050"/>
<path d="M15.0588 2.32771C15.2562 1.87458 15.7859 1.66617 16.2418 1.86199L16.8984 2.13548L16.9195 2.14422C17.3025 2.30901 17.6114 2.60067 17.7993 2.96381L17.8723 3.12371L17.9294 3.28885C18.0428 3.68044 18.0194 4.10135 17.8608 4.48067L17.86 4.48329L15.8331 9.28987C15.6409 9.74544 15.1128 9.95973 14.6545 9.76869C14.1964 9.57754 13.9809 9.0534 14.1729 8.59784L16.1988 3.79214C16.199 3.79113 16.1996 3.79003 16.1997 3.78864C16.1997 3.78655 16.1992 3.78469 16.1988 3.7834C15.9811 3.69592 15.7569 3.60346 15.5273 3.50467C15.0712 3.3084 14.8615 2.78116 15.0588 2.32771Z" fill="#444050"/>
<path d="M12.3561 0C12.8345 0 13.2899 0.193067 13.6226 0.530375C13.9548 0.867181 14.1386 1.32061 14.1386 1.78947V4.9193C14.1385 5.41338 13.7356 5.81403 13.2386 5.81403C12.7416 5.81391 12.3386 5.4133 12.3385 4.9193V1.78947H11.4745C10.9776 1.78938 10.5745 1.38883 10.5745 0.894735C10.5745 0.400645 10.9776 9.48682e-05 11.4745 0H12.3561Z" fill="#444050"/>
</svg>
