<svg width="18" height="20" viewBox="0 0 18 20" fill="none" xmlns="http://www.w3.org/2000/svg">
<path d="M6.92308 8.27586C7.30543 8.27586 7.61538 8.58463 7.61538 8.96552V15.1724C7.61538 15.5533 7.30543 15.8621 6.92308 15.8621C6.54073 15.8621 6.23077 15.5533 6.23077 15.1724V8.96552C6.23077 8.58463 6.54073 8.27586 6.92308 8.27586Z" fill="#444050"/>
<path d="M11.0769 8.27586C11.4593 8.27586 11.7692 8.58463 11.7692 8.96552V15.1724C11.7692 15.5533 11.4593 15.8621 11.0769 15.8621C10.6946 15.8621 10.3846 15.5533 10.3846 15.1724V8.96552C10.3846 8.58463 10.6946 8.27586 11.0769 8.27586Z" fill="#444050"/>
<path fill-rule="evenodd" clip-rule="evenodd" d="M11.0769 0C11.536 0 11.976 0.18178 12.3006 0.505119C12.6252 0.828457 12.8077 1.26687 12.8077 1.72414V4.13793H17.3077C17.69 4.13793 18 4.4467 18 4.82759C18 5.20847 17.69 5.51724 17.3077 5.51724H16.9061L15.9204 17.2993C15.9054 18.0099 15.6174 18.6881 15.1118 19.1918C14.5924 19.7092 13.8883 20 13.1538 20H4.84615C4.11171 20 3.40755 19.7092 2.88822 19.1918C2.38262 18.6881 2.0946 18.0099 2.07963 17.2993L1.0939 5.51724H0.692308C0.309957 5.51724 0 5.20847 0 4.82759C0 4.4467 0.309957 4.13793 0.692308 4.13793H5.19231V1.72414C5.19231 1.26687 5.37479 0.828457 5.69937 0.505119C6.02395 0.18178 6.46405 0 6.92308 0H11.0769ZM3.45883 17.1835C3.46043 17.2025 3.46154 17.2223 3.46154 17.2414C3.46154 17.6072 3.60752 17.9579 3.86719 18.2166C4.12685 18.4753 4.47893 18.6207 4.84615 18.6207H13.1538C13.5211 18.6207 13.8731 18.4753 14.1328 18.2166C14.3925 17.9579 14.5385 17.6072 14.5385 17.2414C14.5385 17.2223 14.5396 17.2025 14.5412 17.1835L15.5174 5.51724H2.48257L3.45883 17.1835ZM6.92308 1.37931C6.83127 1.37931 6.74325 1.41567 6.67834 1.48033C6.61342 1.545 6.57692 1.63268 6.57692 1.72414V4.13793H11.4231V1.72414C11.4231 1.63268 11.3866 1.545 11.3217 1.48033C11.2729 1.43178 11.2112 1.39927 11.1445 1.38605L11.0769 1.37931H6.92308Z" fill="#444050"/>
</svg>
