<svg width="18" height="18" viewBox="0 0 18 18" fill="none" xmlns="http://www.w3.org/2000/svg">
<path d="M3.6247 3.90956C4.00692 3.90971 4.31701 4.21961 4.31701 4.60186C4.31698 4.9841 4.0069 5.29402 3.6247 5.29417H2.64663C2.31197 5.29428 1.99086 5.42711 1.75421 5.66376C1.51756 5.90043 1.38471 6.22151 1.38462 6.55619V15.3534C1.38473 15.688 1.51755 16.0091 1.75421 16.2458C1.99086 16.4825 2.31197 16.6153 2.64663 16.6154H11.4438C11.7785 16.6153 12.0996 16.4824 12.3362 16.2458C12.5729 16.0091 12.7057 15.688 12.7058 15.3534V14.3753C12.706 13.9931 13.0159 13.683 13.3981 13.683C13.7804 13.683 14.0903 13.9931 14.0904 14.3753V15.3534C14.0903 16.0553 13.8115 16.7284 13.3152 17.2248C12.8189 17.7211 12.1457 17.9999 11.4438 18H2.64663C1.94474 17.9999 1.27156 17.7211 0.77524 17.2248C0.278923 16.7284 0.000112113 16.0553 0 15.3534V6.55619C9.83626e-05 5.85429 0.278925 5.18113 0.77524 4.6848C1.27156 4.18847 1.94474 3.90966 2.64663 3.90956H3.6247Z" fill="#444050"/>
<path fill-rule="evenodd" clip-rule="evenodd" d="M15.2551 0C15.9831 9.3946e-09 16.6811 0.289319 17.1959 0.804087C17.7107 1.31885 18 2.0169 18 2.74489C18 3.47246 17.7101 4.16921 17.1959 4.68389L17.1968 4.6848L15.9366 5.94862C15.9098 5.99092 15.8788 6.03161 15.8419 6.06851C15.8055 6.10494 15.7656 6.13565 15.7239 6.16226L9.0018 12.9096C8.87194 13.0399 8.6954 13.1132 8.51142 13.1133H5.57903C5.19675 13.1132 4.88675 12.8033 4.88672 12.421V9.48858C4.88677 9.30462 4.96013 9.12805 5.09044 8.9982L11.8368 2.27524C11.8634 2.23354 11.8951 2.19358 11.9315 2.15715C11.9682 2.12046 12.0084 2.08922 12.0505 2.0625L13.3152 0.803185C13.8299 0.28898 14.5275 1.0593e-06 15.2551 0ZM6.27133 9.77524V11.7287H8.22386L14.3618 5.56731L12.4318 3.63732L6.27133 9.77524ZM15.2551 1.38462C14.8943 1.38462 14.5484 1.52795 14.2933 1.78305L14.2924 1.78395L13.4126 2.65925L15.3389 4.58654L16.216 3.70763L16.2169 3.70673C16.472 3.45163 16.6154 3.10566 16.6154 2.74489C16.6154 2.38412 16.472 2.03815 16.2169 1.78305C15.9618 1.52795 15.6159 1.38462 15.2551 1.38462Z" fill="#444050"/>
</svg>
