<svg width="18" height="13" viewBox="0 0 18 13" fill="none" xmlns="http://www.w3.org/2000/svg">
<path fill-rule="evenodd" clip-rule="evenodd" d="M9.00001 3.54545C9.76997 3.54548 10.5083 3.85698 11.0527 4.41104C11.5971 4.96512 11.9033 5.71642 11.9033 6.5C11.9033 7.28357 11.5971 8.03488 11.0527 8.58896C10.5083 9.14302 9.76997 9.45452 9.00001 9.45455C8.23004 9.45455 7.49178 9.14301 6.94732 8.58896C6.40285 8.03487 6.09676 7.28359 6.09676 6.5C6.09676 5.7164 6.40285 4.96513 6.94732 4.41104C7.49178 3.85699 8.23004 3.54545 9.00001 3.54545ZM9.00001 5.90909C8.84603 5.90909 8.69836 5.97142 8.58947 6.08221C8.48058 6.19303 8.41936 6.34328 8.41936 6.5C8.41936 6.65672 8.48058 6.80697 8.58947 6.91779C8.69836 7.02858 8.84603 7.09091 9.00001 7.09091C9.15398 7.09089 9.30168 7.02859 9.41055 6.91779C9.51942 6.80698 9.58066 6.6567 9.58066 6.5C9.58066 6.3433 9.51942 6.19302 9.41055 6.08221C9.30168 5.97141 9.15398 5.90911 9.00001 5.90909Z" fill="#444050"/>
<path fill-rule="evenodd" clip-rule="evenodd" d="M9.00001 0C12.6645 3.16823e-05 15.6052 2.11072 17.8345 5.89178C18.0552 6.26602 18.0552 6.73398 17.8345 7.10822C15.6052 10.8893 12.6645 13 9.00001 13C5.33552 13 2.39481 10.8893 0.165494 7.10822C-0.0551646 6.73396 -0.0551646 6.26604 0.165494 5.89178C2.39481 2.11071 5.33552 0 9.00001 0ZM9.00001 2.36364C6.55902 2.36364 4.39944 3.62172 2.53233 6.5C4.39944 9.37828 6.55902 10.6364 9.00001 10.6364C11.4408 10.6363 13.5995 9.3779 15.4666 6.5C13.5995 3.6221 11.4408 2.36366 9.00001 2.36364Z" fill="#444050"/>
</svg>
