<svg width="18" height="19" viewBox="0 0 18 19" fill="none" xmlns="http://www.w3.org/2000/svg">
<path d="M8.62815 7.51818C9.22443 7.51849 9.70829 7.99097 9.70829 8.57375V10.4485C9.70552 12.9168 10.4637 15.3251 11.877 17.3495C12.2127 17.8308 12.0849 18.4874 11.5929 18.8161C11.1003 19.1445 10.4286 19.0209 10.0922 18.5398C8.43223 16.1619 7.54477 13.3368 7.54801 10.4457V8.57375C7.54802 7.99084 8.03169 7.51828 8.62815 7.51818Z" fill="#444050"/>
<path d="M4.73516 11.2731C5.32747 11.2069 5.86374 11.6221 5.93203 12.2009C6.14842 14.0388 6.68808 15.8242 7.52411 17.476C7.78824 17.9981 7.56851 18.6315 7.03467 18.8903C6.50027 19.1486 5.85223 18.9352 5.58745 18.4134C4.64067 16.5428 4.03061 14.5216 3.78582 12.4428C3.71765 11.8638 4.14279 11.34 4.73516 11.2731Z" fill="#444050"/>
<path d="M8.62253 1.51368e-06C10.1408 -0.000895284 11.6319 0.396712 12.9445 1.15041C13.4583 1.44583 13.6303 2.09252 13.3284 2.59494C13.0263 3.09722 12.3645 3.26508 11.8503 2.97016C10.8683 2.40631 9.75517 2.11049 8.62393 2.11114C7.49278 2.1119 6.3802 2.40929 5.39899 2.97429C4.41752 3.53961 3.60106 4.35453 3.03338 5.33695C2.46565 6.31957 2.16672 7.43527 2.16983 8.571V9.54548C2.09951 11.6515 2.37067 13.755 2.97431 15.7744C3.14142 16.3338 2.81238 16.9206 2.24015 17.0843C1.66799 17.2471 1.06867 16.9258 0.90123 16.3668C0.236542 14.1432 -0.0628671 11.8278 0.0109602 9.50974L0.00955373 8.57375C0.00584554 7.07478 0.399401 5.59969 1.15157 4.29787C1.90418 2.99558 2.99058 1.91127 4.30198 1.1559C5.61361 0.400535 7.10418 0.00102603 8.62253 1.51368e-06Z" fill="#444050"/>
<path d="M8.62815 3.76871C9.92023 3.76887 11.1563 4.2802 12.0641 5.18301C12.971 6.08528 13.4775 7.30574 13.4775 8.57375V9.50974C13.4775 11.3136 14.0656 13.0677 15.1512 14.5072C15.5047 14.9763 15.4031 15.6375 14.9233 15.9833C14.4432 16.3291 13.7668 16.2284 13.4128 15.7593C12.0518 13.9545 11.3172 11.7613 11.3172 9.50974V8.57375C11.3172 7.85374 11.0289 7.16555 10.5226 6.6619C10.017 6.1593 9.33473 5.88 8.62815 5.87985C7.92148 5.8799 7.2394 6.15928 6.73369 6.6619C6.22725 7.16558 5.93906 7.8536 5.93906 8.57375C5.93875 9.15628 5.45501 9.62901 4.85892 9.62932C4.26266 9.6292 3.77909 9.1564 3.77878 8.57375C3.77879 7.30569 4.28519 6.08529 5.19225 5.18301C6.10009 4.28028 7.33606 3.76876 8.62815 3.76871Z" fill="#444050"/>
<path d="M14.5802 3.91578C15.0934 3.61951 15.756 3.78552 16.0597 4.28688C17.02 5.87212 17.435 7.72233 17.2468 9.55922V10.4485C17.2459 11.2535 17.4574 12.0441 17.86 12.7397C18.1533 13.2469 17.9709 13.8902 17.4521 14.1773C16.9331 14.4642 16.2748 14.2857 15.981 13.7787C15.3936 12.764 15.0852 11.6141 15.0865 10.4457V9.50974C15.0865 9.47219 15.088 9.43437 15.0921 9.39704C15.2471 7.98996 14.9332 6.57144 14.2004 5.36169C13.897 4.86012 14.067 4.21265 14.5802 3.91578Z" fill="#444050"/>
</svg>
