<svg width="18" height="20" viewBox="0 0 18 20" fill="none" xmlns="http://www.w3.org/2000/svg">
<path fill-rule="evenodd" clip-rule="evenodd" d="M8.99998 6.51163C9.91788 6.51163 10.7983 6.87871 11.4474 7.5327C12.0966 8.18691 12.4615 9.07482 12.4615 10C12.4615 10.9251 12.0965 11.8122 11.4474 12.4664C10.7982 13.1206 9.91801 13.4884 8.99998 13.4884C8.08197 13.4884 7.20173 13.1205 6.55257 12.4664C5.90345 11.8122 5.5385 10.9251 5.53845 10C5.53845 9.07482 5.90341 8.18691 6.55257 7.5327C7.2017 6.87872 8.0821 6.51163 8.99998 6.51163ZM8.99998 7.90698C8.44916 7.90698 7.92104 8.12764 7.53154 8.52017C7.1421 8.91268 6.92307 9.44493 6.92307 10C6.92311 10.5551 7.14208 11.0873 7.53154 11.4798C7.92103 11.8723 8.44919 12.093 8.99998 12.093C9.55078 12.093 10.0789 11.8723 10.4684 11.4798C10.8579 11.0873 11.0769 10.5551 11.0769 10C11.0769 9.44494 10.8579 8.91268 10.4684 8.52017C10.0789 8.12765 9.55081 7.90698 8.99998 7.90698Z" fill="#444050"/>
<path fill-rule="evenodd" clip-rule="evenodd" d="M9.03063 0C9.45056 3.09161e-05 9.86459 0.0935852 10.2431 0.273438L10.4035 0.356105L10.4207 0.366097L16.6514 4.06886C16.6961 4.09542 16.7356 4.12777 16.7722 4.16243C17.1249 4.39825 17.4197 4.71362 17.6322 5.08448C17.8755 5.5091 18.0023 5.99137 18 6.48165V13.2576C17.9999 14.2527 17.4659 15.1663 16.6081 15.6586L10.3783 19.6312C10.3663 19.6388 10.3538 19.6461 10.3413 19.653C9.93033 19.8804 9.46886 20 8.99998 20C8.5311 20 8.06964 19.8804 7.65864 19.653C7.6462 19.6461 7.63368 19.6388 7.62168 19.6312L1.39092 15.6595C0.976626 15.4224 0.629562 15.0807 0.385817 14.6675C0.134392 14.2413 0.000988858 13.7544 0 13.2585V6.48074C0 5.47106 0.548847 4.54488 1.42788 4.05796L7.64061 0.366097L7.65774 0.356105C8.07814 0.122521 8.55057 0 9.03063 0ZM9.03063 1.39535C8.78449 1.39535 8.54219 1.45823 8.32661 1.57794L2.11298 5.27071C2.10707 5.27422 2.10096 5.27737 2.09495 5.28071C1.65399 5.52496 1.38461 5.98528 1.38461 6.48074V13.2558L1.39723 13.4393C1.42186 13.6207 1.48228 13.796 1.57572 13.9544C1.66924 14.1129 1.79343 14.2501 1.9399 14.3586L2.09315 14.4577L2.13101 14.4804L8.33472 18.4348C8.53917 18.5459 8.76759 18.6047 8.99998 18.6047C9.23212 18.6046 9.46007 18.5457 9.66435 18.4348L15.869 14.4804L15.905 14.4586C16.3456 14.2145 16.6153 13.7534 16.6154 13.2576V6.47711C16.6168 6.23332 16.5542 5.99327 16.4333 5.78216C16.3123 5.57103 16.137 5.3967 15.9267 5.27616C15.8829 5.25105 15.844 5.22002 15.8077 5.18714L9.73466 1.57794L9.56789 1.49891C9.39738 1.43078 9.21516 1.39538 9.03063 1.39535Z" fill="#444050"/>
</svg>
