<svg width="18" height="18" viewBox="0 0 18 18" fill="none" xmlns="http://www.w3.org/2000/svg">
<path fill-rule="evenodd" clip-rule="evenodd" d="M0.263606 0.263672C0.615084 -0.087766 1.18481 -0.0877886 1.53627 0.263672L17.7364 16.4637C18.0879 16.8151 18.0879 17.3849 17.7364 17.7363C17.385 18.0878 16.8152 18.0878 16.4638 17.7363L15.2667 16.5393C15.1993 16.8903 15.0291 17.2162 14.7727 17.4727C14.4352 17.8102 13.9774 18 13.5001 18H4.49997C4.0226 18 3.56487 17.8102 3.22731 17.4727C2.88974 17.1351 2.69996 16.6774 2.69996 16.2V14.4C2.69996 12.7291 3.36331 11.1263 4.5448 9.94482C4.9111 9.57853 5.31834 9.26241 5.75506 9C5.31834 8.73759 4.9111 8.42147 4.5448 8.05518C3.4546 6.96499 2.80699 5.5159 2.71314 3.98584L0.263606 1.53633C-0.0878688 1.18486 -0.0878688 0.615144 0.263606 0.263672ZM8.6423 9.91494C7.57978 9.99964 6.57753 10.4592 5.81835 11.2184C4.97442 12.0623 4.49997 13.2065 4.49997 14.4V16.2H13.5001V14.7727L8.6423 9.91494Z" fill="#444050"/>
<path d="M13.5001 0C13.9774 1.80119e-05 14.4352 0.189794 14.7727 0.527344C15.1103 0.864907 15.3001 1.32263 15.3001 1.8V3.6L15.2869 4.00342C15.2268 4.94229 14.9575 5.85779 14.4959 6.68145C13.9682 7.62279 13.207 8.41331 12.2863 8.97627C11.8623 9.23524 11.308 9.10135 11.0488 8.67744C10.7897 8.25341 10.9236 7.69919 11.3476 7.43994C12.0051 7.03789 12.5484 6.47386 12.9252 5.80166C13.3022 5.12927 13.5002 4.37082 13.5001 3.6V1.8H4.49997C4.00291 1.8 3.59997 1.39706 3.59997 0.9C3.59997 0.402944 4.00291 0 4.49997 0H13.5001Z" fill="#444050"/>
</svg>
