<svg width="18" height="18" viewBox="0 0 18 18" fill="none" xmlns="http://www.w3.org/2000/svg">
<path d="M9 7.83871C9.64136 7.83871 10.1613 8.35864 10.1613 9V11.36C10.6621 11.489 11.0323 11.9428 11.0323 12.4839C11.0323 13.1252 10.5123 13.6452 9.87097 13.6452H9C8.35864 13.6452 7.83871 13.1252 7.83871 12.4839V10.1227C7.33808 9.99365 6.96774 9.54094 6.96774 9C6.96774 8.35864 7.48767 7.83871 8.12903 7.83871H9Z" fill="#444050"/>
<path d="M9.00907 5.22581C9.65027 5.226 10.1704 5.74585 10.1704 6.3871C10.1704 7.02834 9.65027 7.54819 9.00907 7.54839H9C8.35864 7.54839 7.83871 7.02846 7.83871 6.3871C7.83871 5.74573 8.35864 5.22581 9 5.22581H9.00907Z" fill="#444050"/>
<path fill-rule="evenodd" clip-rule="evenodd" d="M9 0C11.3869 0 13.6766 0.947757 15.3644 2.63558C17.0522 4.32341 18 6.61305 18 9C18 10.1819 17.7673 11.3523 17.315 12.4442C16.8627 13.5361 16.2001 14.5287 15.3644 15.3644C14.5287 16.2001 13.5361 16.8627 12.4442 17.315C11.4887 17.7108 10.4731 17.9379 9.44229 17.9887L9 18C7.81811 18 6.64775 17.7673 5.55582 17.315C4.46389 16.8627 3.47131 16.2001 2.63558 15.3644C1.79986 14.5287 1.13727 13.5361 0.68498 12.4442C0.232691 11.3523 -1.53393e-08 10.1819 0 9C3.55683e-08 6.61305 0.947757 4.32341 2.63558 2.63558C4.32341 0.947757 6.61305 0 9 0ZM9 2.32258C7.22904 2.32258 5.53111 3.0266 4.27886 4.27886C3.0266 5.53111 2.32258 7.22904 2.32258 9C2.32258 9.87678 2.49516 10.745 2.83065 11.5551C3.16622 12.3652 3.6588 13.1011 4.27886 13.7211C4.89891 14.3412 5.63479 14.8338 6.44493 15.1694C7.25499 15.5048 8.12322 15.6774 9 15.6774L9.32888 15.6695C10.0933 15.6318 10.8464 15.4628 11.5551 15.1694C12.3652 14.8338 13.1011 14.3412 13.7211 13.7211C14.3412 13.1011 14.8338 12.3652 15.1694 11.5551C15.5048 10.745 15.6774 9.87678 15.6774 9C15.6774 7.22904 14.9734 5.53111 13.7211 4.27886C12.4689 3.0266 10.771 2.32258 9 2.32258Z" fill="#444050"/>
</svg>
