<svg width="18" height="18" viewBox="0 0 18 18" fill="none" xmlns="http://www.w3.org/2000/svg">
<path fill-rule="evenodd" clip-rule="evenodd" d="M14.5493 10.0976C15.0218 10.0977 15.4051 10.4908 15.4051 10.9756V11.5678C15.6999 11.6749 15.9746 11.8361 16.2152 12.0469L16.7144 11.7519C17.1237 11.5094 17.6481 11.6532 17.8844 12.0732C18.1205 12.4929 17.9802 13.0299 17.5713 13.2725L17.071 13.5675C17.0996 13.7252 17.1167 13.886 17.1167 14.0488C17.1167 14.2112 17.0995 14.3715 17.071 14.529L17.5713 14.8251C17.9806 15.0674 18.1217 15.6044 17.8855 16.0244C17.6494 16.4444 17.1249 16.588 16.7155 16.3457L16.2152 16.0495C15.9746 16.2605 15.7 16.4214 15.4051 16.5286V17.122C15.4051 17.6068 15.0218 17.9998 14.5493 18C14.0767 18 13.6936 17.6069 13.6936 17.122V16.5286C13.3984 16.4214 13.1232 16.2608 12.8824 16.0495L12.3832 16.3457C11.9739 16.5879 11.4505 16.4442 11.2143 16.0244C10.9781 15.6044 11.1182 15.0675 11.5274 14.8251L12.0255 14.5301C11.9969 14.3724 11.982 14.2114 11.982 14.0488C11.982 13.8858 11.9968 13.7243 12.0255 13.5663L11.5274 13.2725C11.1182 13.0301 10.9781 12.4931 11.2143 12.0732C11.4505 11.6534 11.9739 11.5096 12.3832 11.7519L12.8824 12.0469C13.1232 11.8358 13.3985 11.675 13.6936 11.5678V10.9756C13.6936 10.4907 14.0767 10.0976 14.5493 10.0976ZM14.5493 13.1707C14.3224 13.1707 14.1048 13.2634 13.9443 13.428C13.7838 13.5926 13.6936 13.8159 13.6936 14.0488C13.6936 14.2817 13.7838 14.5049 13.9443 14.6696C14.1048 14.8342 14.3224 14.9268 14.5493 14.9268C14.7762 14.9268 14.994 14.8342 15.1544 14.6696C15.3148 14.5049 15.4051 14.2816 15.4051 14.0488C15.4051 13.816 15.3148 13.5926 15.1544 13.428C14.994 13.2634 14.7762 13.1708 14.5493 13.1707Z" fill="#444050"/>
<path d="M13.6924 0C14.6003 0 15.4707 0.370299 16.1127 1.02896C16.7547 1.68763 17.1156 2.5807 17.1156 3.51219V7.90244C17.1156 8.38737 16.7324 8.78049 16.2598 8.78049C15.7872 8.78049 15.404 8.38737 15.404 7.90244V3.51219C15.404 3.04645 15.2236 2.59991 14.9026 2.27058C14.5816 1.94125 14.1464 1.7561 13.6924 1.7561H3.42311C2.96918 1.7561 2.53397 1.94125 2.21299 2.27058C1.89201 2.59991 1.71156 3.04645 1.71156 3.51219V10.5366C1.71156 11.0023 1.89201 11.4489 2.21299 11.7782C2.53397 12.1075 2.96918 12.2927 3.42311 12.2927H5.99045C6.21741 12.2927 6.43502 12.3853 6.59551 12.5499L9.16284 15.1841C9.49704 15.527 9.49704 16.0828 9.16284 16.4257C8.82864 16.7686 8.28692 16.7686 7.95272 16.4257L5.6361 14.0488H3.42311C2.51525 14.0488 1.64482 13.6785 1.00286 13.0198C0.360907 12.3612 0 11.4681 0 10.5366V3.51219C0 2.5807 0.360907 1.68763 1.00286 1.02896C1.64482 0.370299 2.51525 0 3.42311 0H13.6924Z" fill="#444050"/>
<path d="M10.2693 7.90244C10.742 7.90244 11.1251 8.29555 11.1251 8.78049C11.1251 9.26542 10.742 9.65854 10.2693 9.65854H5.13467C4.66204 9.65854 4.27889 9.26542 4.27889 8.78049C4.27889 8.29555 4.66204 7.90244 5.13467 7.90244H10.2693Z" fill="#444050"/>
<path d="M11.9809 4.39024C12.4535 4.39024 12.8367 4.78336 12.8367 5.26829C12.8367 5.75323 12.4535 6.14634 11.9809 6.14634H5.13467C4.66204 6.14634 4.27889 5.75323 4.27889 5.26829C4.27889 4.78336 4.66204 4.39024 5.13467 4.39024H11.9809Z" fill="#444050"/>
</svg>
