<svg width="18" height="18" viewBox="0 0 18 18" fill="none" xmlns="http://www.w3.org/2000/svg">
<path fill-rule="evenodd" clip-rule="evenodd" d="M15 0C15.7957 0 16.5585 0.316297 17.1211 0.878906C17.6837 1.44152 18 2.20435 18 3V10C18 10.2652 17.8946 10.5195 17.707 10.707L10.707 17.707C10.5195 17.8946 10.2652 18 10 18H3C2.20435 18 1.44152 17.6837 0.878906 17.1211C0.316297 16.5585 0 15.7957 0 15V3C0 2.20435 0.316297 1.44152 0.878906 0.878906C1.44152 0.316297 2.20435 0 3 0H15ZM3 2C2.73478 2 2.48051 2.10543 2.29297 2.29297C2.10543 2.48051 2 2.73478 2 3V15L2.01953 15.1966C2.05803 15.3886 2.15247 15.5665 2.29297 15.707C2.48051 15.8946 2.73478 16 3 16H9V11C9 10.4696 9.21087 9.96101 9.58594 9.58594C9.96101 9.21087 10.4696 9 11 9H16V3C16 2.73478 15.8946 2.48051 15.707 2.29297C15.5665 2.15247 15.3886 2.05803 15.1966 2.01953L15 2H3ZM11 14.5859L14.5859 11H11V14.5859Z" fill="#444050"/>
</svg>
