<svg width="18" height="18" viewBox="0 0 18 18" fill="none" xmlns="http://www.w3.org/2000/svg">
<path d="M10.7773 13.3333C11.5141 13.3333 12.2213 13.6262 12.7422 14.1471C13.2629 14.6679 13.5559 15.3742 13.556 16.1107V17C13.556 17.5521 13.1081 17.9998 12.556 18C12.0037 18 11.556 17.5523 11.556 17V16.1107C11.5559 15.9047 11.4737 15.7069 11.3281 15.5612C11.1823 15.4153 10.9836 15.3333 10.7773 15.3333H7.22266C7.01638 15.3333 6.81774 15.4153 6.67188 15.5612C6.52625 15.7069 6.44413 15.9047 6.44401 16.1107V17C6.44401 17.5523 5.9963 18 5.44401 18C4.89193 17.9998 4.44401 17.5521 4.44401 17V16.1107C4.44413 15.3742 4.73712 14.6679 5.25781 14.1471C5.77875 13.6262 6.48594 13.3333 7.22266 13.3333H10.7773Z" fill="#444050"/>
<path fill-rule="evenodd" clip-rule="evenodd" d="M9 7.11068C9.73651 7.11068 10.4426 7.40382 10.9635 7.92448C11.4845 8.44541 11.7773 9.15261 11.7773 9.88932C11.7772 10.6259 11.4844 11.332 10.9635 11.8529C10.4426 12.3737 9.73661 12.6667 9 12.6667C8.26339 12.6667 7.55737 12.3737 7.03646 11.8529C6.51563 11.332 6.22277 10.6259 6.22266 9.88932C6.22266 9.15261 6.51552 8.44541 7.03646 7.92448C7.55735 7.40382 8.26349 7.11068 9 7.11068ZM9 9.11068C8.79393 9.11068 8.59634 9.19295 8.45052 9.33854C8.30466 9.4844 8.22266 9.68304 8.22266 9.88932C8.22277 10.0954 8.30476 10.293 8.45052 10.4388C8.59636 10.5845 8.79382 10.6667 9 10.6667C9.20618 10.6667 9.40364 10.5845 9.54948 10.4388C9.69524 10.293 9.77723 10.0954 9.77734 9.88932C9.77734 9.68304 9.69534 9.4844 9.54948 9.33854C9.40366 9.19295 9.20607 9.11068 9 9.11068Z" fill="#444050"/>
<path d="M4.55599 6.22266C5.10807 6.22289 5.55599 6.67052 5.55599 7.22266C5.55576 7.7746 5.10793 8.22242 4.55599 8.22266H2.77734C2.57122 8.22277 2.37362 8.30476 2.22786 8.45052C2.08214 8.59636 2 8.79382 2 9V9.88932L1.99479 9.99089C1.94369 10.4953 1.51785 10.8893 1 10.8893C0.482151 10.8893 0.0563072 10.4953 0.00520833 9.99089L0 9.88932V9C6.31324e-08 8.26339 0.293003 7.55737 0.813802 7.03646C1.33463 6.51563 2.04079 6.22277 2.77734 6.22266H4.55599Z" fill="#444050"/>
<path d="M15.2227 6.22266C15.9592 6.22277 16.6654 6.51563 17.1862 7.03646C17.707 7.55737 18 8.26339 18 9V9.88932C17.9998 10.4414 17.5521 10.8893 17 10.8893C16.4479 10.8893 16.0002 10.4414 16 9.88932V9C16 8.79382 15.9179 8.59636 15.7721 8.45052C15.6264 8.30476 15.4288 8.22277 15.2227 8.22266H13.444C12.8921 8.22242 12.4442 7.7746 12.444 7.22266C12.444 6.67052 12.8919 6.22289 13.444 6.22266H15.2227Z" fill="#444050"/>
<path fill-rule="evenodd" clip-rule="evenodd" d="M4.55599 0C5.29255 0.000114892 5.9987 0.29297 6.51953 0.813802C7.04036 1.33463 7.33322 2.04079 7.33333 2.77734C7.33333 3.51406 7.04047 4.22125 6.51953 4.74219C5.99872 5.26288 5.29244 5.55587 4.55599 5.55599C3.81928 5.55599 3.11208 5.26312 2.59115 4.74219C2.07021 4.22125 1.77734 3.51406 1.77734 2.77734C1.77746 2.04089 2.07045 1.33461 2.59115 0.813802C3.11208 0.292868 3.81928 0 4.55599 0ZM4.55599 2C4.34971 2 4.15107 2.082 4.00521 2.22786C3.85958 2.3736 3.77746 2.57132 3.77734 2.77734C3.77734 2.98362 3.85935 3.18226 4.00521 3.32813C4.15107 3.47399 4.34971 3.55599 4.55599 3.55599C4.76201 3.55587 4.95973 3.47375 5.10547 3.32813C5.25133 3.18226 5.33333 2.98362 5.33333 2.77734C5.33322 2.57122 5.25123 2.37362 5.10547 2.22786C4.95971 2.08211 4.76211 2.00011 4.55599 2Z" fill="#444050"/>
<path fill-rule="evenodd" clip-rule="evenodd" d="M13.444 0C14.1807 0 14.8879 0.292868 15.4089 0.813802C15.9296 1.33461 16.2225 2.04089 16.2227 2.77734C16.2227 3.51406 15.9298 4.22125 15.4089 4.74219C14.8879 5.26312 14.1807 5.55599 13.444 5.55599C12.7076 5.55587 12.0013 5.26288 11.4805 4.74219C10.9595 4.22125 10.6667 3.51406 10.6667 2.77734C10.6668 2.04079 10.9596 1.33463 11.4805 0.813802C12.0013 0.29297 12.7075 0.000115019 13.444 0ZM13.444 2C13.2379 2.00012 13.0403 2.08211 12.8945 2.22786C12.7488 2.37362 12.6668 2.57122 12.6667 2.77734C12.6667 2.98362 12.7487 3.18226 12.8945 3.32813C13.0403 3.47375 13.238 3.55587 13.444 3.55599C13.6503 3.55599 13.8489 3.47399 13.9948 3.32813C14.1407 3.18226 14.2227 2.98362 14.2227 2.77734C14.2225 2.57132 14.1404 2.3736 13.9948 2.22786C13.8489 2.082 13.6503 2 13.444 2Z" fill="#444050"/>
</svg>
