<svg width="18" height="19" viewBox="0 0 18 19" fill="none" xmlns="http://www.w3.org/2000/svg">
<path d="M8.11969 11.2593C9.37147 11.2593 10.5507 11.7906 11.4047 12.701C12.2558 13.6085 12.7195 14.8212 12.7195 16.0684V17.9444C12.7195 18.5274 12.236 19 11.6395 19C11.0433 18.9998 10.5595 18.5272 10.5595 17.9444V16.0684C10.5595 15.3248 10.2819 14.6279 9.81281 14.1277C9.34652 13.6305 8.73499 13.3704 8.11969 13.3704H4.59984C3.98459 13.3704 3.37298 13.6305 2.90672 14.1277C2.43776 14.6279 2.16 15.3249 2.16 16.0684V17.9444C2.15999 18.5274 1.67646 19 1.08 19C0.483541 19 1.30807e-05 18.5274 0 17.9444V16.0684C0 14.8213 0.463851 13.6084 1.31484 12.701C2.16877 11.7906 3.34808 11.2593 4.59984 11.2593H8.11969Z" fill="#444050"/>
<path d="M13.2398 12.1691C13.4016 11.6081 13.9989 11.2813 14.573 11.4393C15.5744 11.715 16.4426 12.3317 17.055 13.1697C17.6665 14.0064 17.9944 15.0238 18 16.0629V17.9444C18 18.5274 17.5165 19 16.92 19C16.3235 19 15.84 18.5274 15.84 17.9444V16.0739L15.8302 15.843C15.7858 15.3101 15.5977 14.8069 15.2972 14.3957C14.9546 13.9272 14.4893 13.6105 13.9866 13.4721C13.4127 13.3138 13.0782 12.7301 13.2398 12.1691Z" fill="#444050"/>
<path fill-rule="evenodd" clip-rule="evenodd" d="M6.36047 0C7.61211 0.000132565 8.79162 0.531377 9.64547 1.44177C10.4964 2.34917 10.9603 3.56211 10.9603 4.8091C10.9602 6.05582 10.4961 7.2678 9.64547 8.17506C8.79162 9.08545 7.61211 9.61669 6.36047 9.61683C5.10865 9.61683 3.92943 9.08556 3.07547 8.17506C2.22454 7.26775 1.76074 6.05603 1.76063 4.8091C1.76063 3.56198 2.22439 2.3492 3.07547 1.44177C3.92941 0.53137 5.10873 0 6.36047 0ZM6.36047 2.11111C5.74516 2.11111 5.13364 2.37124 4.66734 2.86842C4.1982 3.36866 3.92063 4.0655 3.92063 4.8091C3.92074 5.55256 4.19826 6.24964 4.66734 6.74978C5.13359 7.24668 5.74534 7.50571 6.36047 7.50571C6.97534 7.50558 7.58609 7.2464 8.05219 6.74978C8.52127 6.24964 8.8002 5.55256 8.80031 4.8091C8.80031 4.06546 8.52137 3.36867 8.05219 2.86842C7.58603 2.37147 6.97555 2.11124 6.36047 2.11111Z" fill="#444050"/>
<path d="M11.4792 0.893374C11.6397 0.331917 12.2365 0.00398072 12.8109 0.160807C13.8187 0.436002 14.6925 1.05567 15.307 1.89945C15.9207 2.74235 16.2464 3.76794 16.2464 4.81322C16.2464 5.85855 15.9207 6.88407 15.307 7.727C14.6925 8.57084 13.8187 9.19042 12.8109 9.46564C12.2365 9.62247 11.6397 9.29455 11.4792 8.73307C11.3189 8.17165 11.6557 7.58968 12.2302 7.43287C12.7361 7.2946 13.204 6.97461 13.5478 6.50239C13.8925 6.02876 14.0864 5.43445 14.0864 4.81322C14.0864 4.19197 13.8926 3.59768 13.5478 3.12406C13.204 2.65182 12.7362 2.33184 12.2302 2.19358C11.6557 2.03675 11.3188 1.45485 11.4792 0.893374Z" fill="#444050"/>
</svg>
