<svg width="18" height="18" viewBox="0 0 18 18" fill="none" xmlns="http://www.w3.org/2000/svg">
<path fill-rule="evenodd" clip-rule="evenodd" d="M5.01324 5.73143C5.30317 5.67937 5.60031 5.77192 5.80865 5.98017L12.019 12.1906C12.2273 12.3989 12.3206 12.6961 12.2686 12.986C12.2165 13.276 12.0258 13.5224 11.758 13.6452L2.63051 17.8289L2.62963 17.828C2.28651 17.9866 1.90336 18.0377 1.531 17.9721C1.15658 17.9061 0.811086 17.7268 0.542223 17.458C0.273361 17.1891 0.0940899 16.8436 0.0280607 16.4692C-0.0379458 16.0947 0.0132141 15.709 0.17396 15.3644L4.35405 6.24208L4.40591 6.1454C4.53923 5.92864 4.75941 5.77706 5.01324 5.73143ZM1.80785 16.1194L1.80522 16.1255C1.80075 16.1352 1.79903 16.1458 1.80082 16.1563C1.8027 16.1669 1.8081 16.1768 1.81576 16.1844C1.82342 16.1921 1.83321 16.1975 1.84389 16.1994C1.85449 16.2012 1.8658 16.1995 1.87553 16.195L1.8808 16.1923L9.83054 12.5474L5.45093 8.1678L1.80785 16.1194Z" fill="#444050"/>
<path d="M16.1473 13.3394C16.6442 13.3394 17.0473 13.7424 17.0473 14.2394V14.2921H17.1C17.597 14.2921 18 14.6951 18 15.1921C17.9999 15.6891 17.597 16.0921 17.1 16.0921H17.0473V16.1449C17.0472 16.6419 16.6442 17.0448 16.1473 17.0449C15.6502 17.0449 15.2473 16.6419 15.2473 16.1449V16.0921H15.1945C14.6975 16.0921 14.2946 15.6891 14.2945 15.1921C14.2945 14.6951 14.6975 14.2921 15.1945 14.2921H15.2473V14.2394C15.2473 13.7423 15.6502 13.3394 16.1473 13.3394Z" fill="#444050"/>
<path d="M16.882 8.12561C17.3641 8.00531 17.8521 8.29843 17.9728 8.7804C18.0933 9.2626 17.8001 9.75145 17.318 9.87202L15.4125 10.3484C14.9303 10.4689 14.4414 10.1758 14.3209 9.6936C14.2004 9.21148 14.4936 8.72266 14.9757 8.60198L16.882 8.12561Z" fill="#444050"/>
<path d="M11.6991 5.02742C12.0505 4.67609 12.6203 4.67625 12.9718 5.02742C13.3232 5.3789 13.3232 5.94863 12.9718 6.30009L12.019 7.25284C11.6675 7.6043 11.0978 7.6043 10.7464 7.25284C10.3951 6.90133 10.395 6.33155 10.7464 5.98017L11.6991 5.02742Z" fill="#444050"/>
<path d="M2.80717 0C3.3042 3.47885e-05 3.70718 0.402971 3.70718 0.900013V0.952748H3.75991C4.25692 0.952783 4.65989 1.35574 4.65991 1.85276C4.65991 2.3498 4.25694 2.75274 3.75991 2.75277H3.70718V2.80551C3.70718 3.30255 3.3042 3.70549 2.80717 3.70552C2.31016 3.70547 1.90717 3.30254 1.90717 2.80551V2.75277H1.85443C1.35738 2.75277 0.954431 2.34983 0.954431 1.85276C0.95446 1.35572 1.35739 0.952748 1.85443 0.952748H1.90717V0.900013C1.90717 0.40298 2.31016 5.00943e-05 2.80717 0Z" fill="#444050"/>
<path d="M8.12809 0.682041C8.24864 0.199883 8.73666 -0.0932107 9.21882 0.0272465C9.70091 0.147814 9.994 0.635866 9.8736 1.11799L9.39724 3.02348C9.27668 3.50568 8.78783 3.79968 8.30563 3.67916C7.8237 3.55848 7.5305 3.06956 7.65084 2.58754L8.12809 0.682041Z" fill="#444050"/>
<path d="M16.1473 0C16.6442 9.41525e-05 17.0473 0.403008 17.0473 0.900013V0.952748H17.1C17.597 0.952783 18 1.35574 18 1.85276C18 2.3498 17.597 2.75274 17.1 2.75277H17.0473V2.80551C17.0473 3.30252 16.6442 3.70543 16.1473 3.70552C15.6502 3.70552 15.2473 3.30257 15.2473 2.80551V2.75277H15.1945C14.6975 2.75277 14.2945 2.34983 14.2945 1.85276C14.2945 1.35572 14.6975 0.952748 15.1945 0.952748H15.2473V0.900013C15.2473 0.40295 15.6502 0 16.1473 0Z" fill="#444050"/>
</svg>
