<svg width="18" height="18" viewBox="0 0 18 18" fill="none" xmlns="http://www.w3.org/2000/svg">
<path d="M9 15.3C9.49706 15.3 9.9 15.7029 9.9 16.2V17.1C9.9 17.5971 9.49706 18 9 18C8.50294 18 8.1 17.5971 8.1 17.1V16.2C8.1 15.7029 8.50294 15.3 9 15.3Z" fill="#444050"/>
<path d="M3.2335 13.4938C3.58497 13.1424 4.15468 13.1424 4.50615 13.4938C4.85762 13.8453 4.85762 14.415 4.50615 14.7665L3.87598 15.3967C3.52448 15.7478 2.95467 15.748 2.60332 15.3967C2.25197 15.0453 2.2522 14.4755 2.60332 14.124L3.2335 13.4938Z" fill="#444050"/>
<path d="M13.4938 13.4938C13.8453 13.1424 14.415 13.1424 14.7665 13.4938L15.3967 14.124C15.7478 14.4755 15.748 15.0453 15.3967 15.3967C15.0453 15.748 14.4755 15.7478 14.124 15.3967L13.4938 14.7665C13.1424 14.415 13.1424 13.8453 13.4938 13.4938Z" fill="#444050"/>
<path fill-rule="evenodd" clip-rule="evenodd" d="M9.22324 4.50527C10.3354 4.56047 11.3905 5.02721 12.1816 5.81836C13.0256 6.66227 13.5 7.80653 13.5 9L13.4947 9.22324C13.4395 10.3354 12.9728 11.3905 12.1816 12.1816C11.3905 12.9728 10.3354 13.4395 9.22324 13.4947L9 13.5C7.80653 13.5 6.66227 13.0256 5.81836 12.1816C5.02721 11.3905 4.56047 10.3354 4.50527 9.22324L4.5 9C4.5 7.80653 4.97445 6.66227 5.81836 5.81836C6.66227 4.97445 7.80653 4.5 9 4.5L9.22324 4.50527ZM9 6.3C8.28392 6.3 7.59736 6.58467 7.09102 7.09102C6.58467 7.59736 6.3 8.28392 6.3 9L6.31318 9.26719C6.37462 9.88516 6.64804 10.466 7.09102 10.909C7.59736 11.4153 8.28392 11.7 9 11.7L9.26719 11.6868C9.88516 11.6254 10.466 11.352 10.909 10.909C11.4153 10.4026 11.7 9.71608 11.7 9L11.6868 8.73281C11.6254 8.11484 11.352 7.53399 10.909 7.09102C10.466 6.64804 9.88516 6.37462 9.26719 6.31318L9 6.3Z" fill="#444050"/>
<path d="M1.8 8.1C2.29706 8.1 2.7 8.50294 2.7 9C2.7 9.49706 2.29706 9.9 1.8 9.9H0.9C0.402944 9.9 0 9.49706 0 9C0 8.50294 0.402944 8.1 0.9 8.1H1.8Z" fill="#444050"/>
<path d="M17.1 8.1C17.5971 8.1 18 8.50294 18 9C18 9.49706 17.5971 9.9 17.1 9.9H16.2C15.7029 9.9 15.3 9.49706 15.3 9C15.3 8.50294 15.7029 8.1 16.2 8.1H17.1Z" fill="#444050"/>
<path d="M2.60332 2.60332C2.95467 2.25197 3.52448 2.2522 3.87598 2.60332L4.50615 3.2335C4.85762 3.58497 4.85762 4.15468 4.50615 4.50615C4.15468 4.85762 3.58497 4.85762 3.2335 4.50615L2.60332 3.87598C2.2522 3.52448 2.25197 2.95467 2.60332 2.60332Z" fill="#444050"/>
<path d="M14.124 2.60332C14.4755 2.2522 15.0453 2.25197 15.3967 2.60332C15.748 2.95467 15.7478 3.52448 15.3967 3.87598L14.7665 4.50615C14.415 4.85762 13.8453 4.85762 13.4938 4.50615C13.1424 4.15468 13.1424 3.58497 13.4938 3.2335L14.124 2.60332Z" fill="#444050"/>
<path d="M9 0C9.49706 0 9.9 0.402944 9.9 0.9V1.8C9.9 2.29706 9.49706 2.7 9 2.7C8.50294 2.7 8.1 2.29706 8.1 1.8V0.9C8.1 0.402944 8.50294 0 9 0Z" fill="#444050"/>
</svg>
