<svg width="18" height="16" viewBox="0 0 18 16" fill="none" xmlns="http://www.w3.org/2000/svg">
<path fill-rule="evenodd" clip-rule="evenodd" d="M3.74977 0.245233C4.45316 0.0258451 5.19445 -0.0473517 5.92736 0.0297109C6.66022 0.106838 7.37052 0.33214 8.01226 0.69352C8.373 0.896732 8.70754 1.14211 9.0105 1.42091C9.31352 1.14508 9.64777 0.902822 10.0077 0.70214C10.649 0.344656 11.3575 0.122706 12.0883 0.0480303C12.819 -0.0265806 13.5577 0.0480267 14.2584 0.267863C14.9593 0.487863 15.609 0.84836 16.1644 1.32823C16.7197 1.80817 17.1705 2.39801 17.4865 3.05995C17.8022 3.72188 17.9767 4.44243 17.9978 5.17531C18.0189 5.90825 17.8863 6.63758 17.609 7.31652C17.3315 7.99551 16.9153 8.6098 16.3881 9.12044C16.3732 9.1348 16.3568 9.1473 16.3412 9.16031L9.5762 15.7682C9.25942 16.0775 8.75652 16.077 8.43946 15.7682L1.62439 9.1129C1.09582 8.60424 0.677832 7.99098 0.398167 7.31329C0.117568 6.63313 -0.0177013 5.90202 0.00185505 5.16668C0.0214984 4.43138 0.194829 3.70812 0.511095 3.04379C0.827518 2.37937 1.27999 1.78792 1.83746 1.30668C2.39488 0.825522 3.04627 0.464693 3.74977 0.245233ZM5.75797 1.67522C5.2439 1.62121 4.72358 1.67362 4.23131 1.82717C3.73924 1.98076 3.28576 2.23206 2.89962 2.56533C2.51342 2.89873 2.20227 3.30649 1.98555 3.76148C1.76897 4.21635 1.6506 4.71022 1.63717 5.21087C1.62386 5.71158 1.71586 6.21123 1.90777 6.67642C2.07572 7.08323 2.31779 7.45766 2.62156 7.78097L2.76112 7.92214L9.0073 14.0203L10.1142 12.9395L8.89011 11.7336C8.56659 11.4146 8.56094 10.8907 8.87626 10.5634C9.19168 10.2361 9.70966 10.2292 10.0332 10.5483L11.2914 11.7897L12.3962 10.711L11.1625 9.4933C10.839 9.17428 10.8323 8.65031 11.1476 8.32301C11.463 7.99587 11.981 7.98894 12.3046 8.30792L13.5745 9.56011L14.6792 8.48142L13.2069 7.02988C12.8198 6.64813 12.2898 6.42977 11.7335 6.42965C11.1771 6.42965 10.6474 6.64803 10.2602 7.02988L9.35141 7.92537C8.40686 8.85662 6.88273 8.85634 5.93801 7.92537L5.44369 7.43937C5.11786 7.118 4.93139 6.67678 4.93125 6.21305C4.93125 5.74919 5.11784 5.3082 5.44369 4.98672L7.86204 2.60089C7.66506 2.42588 7.44871 2.27053 7.21644 2.13967C6.76922 1.88782 6.27206 1.72934 5.75797 1.67522ZM13.7737 1.84872C13.2832 1.69483 12.765 1.64227 12.2524 1.69462C11.7396 1.74704 11.2441 1.90337 10.7971 2.15261C10.3503 2.40181 9.96146 2.73789 9.65503 3.1397C9.61494 3.19225 9.56884 3.23911 9.51867 3.27979L6.58681 6.1721C6.57215 6.1866 6.56764 6.20186 6.56764 6.21305C6.56778 6.2242 6.57231 6.23969 6.58681 6.25399L7.08007 6.74C7.38928 7.0445 7.90026 7.04467 8.20935 6.74L9.1181 5.8445C9.81526 5.15713 10.7564 4.77443 11.7335 4.77443C12.7105 4.77456 13.6519 5.1572 14.349 5.8445L15.7925 7.26803C15.9109 7.08321 16.0131 6.88824 16.0962 6.68504C16.2859 6.22078 16.3768 5.72283 16.3625 5.2238C16.3481 4.7247 16.2283 4.23204 16.012 3.77872C15.7956 3.32557 15.4857 2.91928 15.1011 2.58688C14.7163 2.25438 14.2641 2.00268 13.7737 1.84872Z" fill="#444050"/>
</svg>
