<svg width="18" height="18" viewBox="0 0 18 18" fill="none" xmlns="http://www.w3.org/2000/svg">
<path fill-rule="evenodd" clip-rule="evenodd" d="M0.338596 0.292856C0.729124 -0.0975993 1.36216 -0.0976383 1.75267 0.292856L15.3022 13.8423C15.3247 13.8609 15.3475 13.8802 15.3687 13.9009C15.3944 13.9262 15.4179 13.9531 15.4403 13.9804L17.7072 16.2473C18.0975 16.6378 18.0977 17.2709 17.7072 17.6614C17.3167 18.0515 16.6836 18.0516 16.2931 17.6614L14.6278 15.996C13.9733 16.5262 13.2467 16.964 12.4676 17.2929C11.3761 17.7535 10.2043 17.9943 9.01965 17.9999C7.8347 18.0054 6.65985 17.776 5.5639 17.3254C4.46795 16.8748 3.4713 16.2123 2.63288 15.3749C1.79452 14.5376 1.13037 13.5418 0.678442 12.4465C0.226598 11.3512 -0.00397716 10.1769 5.19043e-05 8.99208C0.00416608 7.80715 0.242421 6.6338 0.70188 5.54156C1.03122 4.75871 1.47008 4.02823 2.00267 3.37098L0.338596 1.70692C-0.0518813 1.31646 -0.0517607 0.6834 0.338596 0.292856ZM3.42716 4.79546C3.07138 5.26258 2.77436 5.77393 2.54564 6.3176C2.18864 7.1664 2.00327 8.07778 2.00007 8.99859C1.9969 9.91951 2.17621 10.8322 2.52741 11.6835C2.87865 12.5348 3.39534 13.3087 4.04696 13.9595C4.69851 14.6102 5.47267 15.125 6.32432 15.4752C7.17595 15.8253 8.08844 16.0041 9.00923 15.9999C9.93018 15.9956 10.8418 15.8085 11.6902 15.4504C12.231 15.2222 12.7384 14.9255 13.2033 14.5715L3.42716 4.79546Z" fill="#444050"/>
<path d="M4.99358 0.955617C6.67956 0.108957 8.58939 -0.185952 10.452 0.114471C12.3148 0.415037 14.0357 1.29587 15.37 2.6301C16.7042 3.96431 17.5837 5.68533 17.8843 7.54807C18.1847 9.41062 17.8912 11.3205 17.0444 13.0064C16.7965 13.4998 16.1954 13.6995 15.702 13.4517C15.2087 13.204 15.0093 12.6027 15.2567 12.1093C15.9149 10.7988 16.1439 9.3135 15.9103 7.86578C15.6767 6.41818 14.9928 5.08105 13.9559 4.04416C12.919 3.00732 11.5819 2.32343 10.1342 2.08973C8.68653 1.85616 7.20118 2.084 5.89072 2.74208C5.39733 2.98976 4.79622 2.79129 4.54826 2.29807C4.30042 1.80459 4.50017 1.20355 4.99358 0.955617Z" fill="#444050"/>
<path d="M9.02225 3.54546C9.57454 3.54546 10.0223 3.99318 10.0223 4.54546V5.43218C10.0218 5.98409 9.57427 6.43219 9.02225 6.43219C8.47056 6.43181 8.02269 5.98386 8.02225 5.43218V4.54546C8.02225 3.99341 8.47028 3.54584 9.02225 3.54546Z" fill="#444050"/>
</svg>
