<svg width="18" height="21" viewBox="0 0 18 21" fill="none" xmlns="http://www.w3.org/2000/svg">
<path fill-rule="evenodd" clip-rule="evenodd" d="M12.9357 10.8223C13.0788 10.8425 13.2181 10.8824 13.3499 10.9408L13.5425 11.0426L13.7182 11.1687C13.8838 11.3069 14.0185 11.4784 14.1141 11.6715L14.1157 11.673L14.9059 13.2757L16.6682 13.5324C16.9576 13.5742 17.2276 13.6963 17.4493 13.8833C17.6158 14.0239 17.7498 14.1977 17.8437 14.3907L17.9247 14.5897L17.9766 14.7963C18.014 15.0069 18.0063 15.2237 17.9552 15.4329C17.887 15.7117 17.7417 15.9682 17.5349 16.1712L17.5334 16.1727L16.251 17.4229L16.5536 19.1882C16.6023 19.4712 16.5713 19.7629 16.4634 20.0298C16.3553 20.2969 16.1746 20.5313 15.9391 20.7027C15.7036 20.8742 15.4232 20.9753 15.1306 20.9959C14.8381 21.0165 14.5461 20.9553 14.2884 20.8182L12.7171 19.9903L11.1427 20.8197L11.1397 20.8212C10.8828 20.9555 10.5924 21.0171 10.3021 20.9959C10.0118 20.9747 9.73368 20.8724 9.4996 20.7027C9.26558 20.5331 9.08448 20.3018 8.97532 20.0374C8.86642 19.7733 8.83252 19.4847 8.8775 19.2033L8.88056 19.1897L9.18167 17.4214L7.90385 16.1742C7.69539 15.9716 7.54808 15.7155 7.47893 15.4359C7.4099 15.1563 7.42043 14.8623 7.5095 14.5882C7.59862 14.3141 7.76358 14.0691 7.98639 13.8818L8.16369 13.7542C8.34588 13.6404 8.55056 13.5651 8.76592 13.5339L10.5298 13.2757L11.32 11.673L11.3216 11.6715C11.4491 11.414 11.6467 11.196 11.8932 11.0426L12.0843 10.9408C12.2824 10.8529 12.4978 10.8072 12.7171 10.8071L12.9357 10.8223ZM12.3655 14.8556C12.1951 15.2005 11.8646 15.4394 11.4821 15.4951L10.6781 15.6121L11.265 16.1848C11.5393 16.4524 11.6642 16.8367 11.5998 17.2133L11.4622 18.0108L12.1684 17.6402L12.2998 17.5809C12.6135 17.4622 12.9666 17.4819 13.2673 17.6402L13.9704 18.0093L13.8344 17.2133C13.77 16.8368 13.895 16.4524 14.1692 16.1848L14.7561 15.6121L13.9536 15.4951C13.5708 15.4394 13.239 15.2008 13.0686 14.8556L12.7171 14.1416L12.3655 14.8556Z" fill="#444050"/>
<path d="M5.57595 11.79C6.22427 11.79 6.74983 12.3123 6.74983 12.9567C6.74956 13.6008 6.2241 14.1234 5.57595 14.1234H5.08683C4.36437 14.1234 3.66945 14.4117 3.15481 14.9285C2.63981 15.4458 2.34777 16.15 2.34777 16.8867V18.8509C2.34777 19.4953 1.8222 20.0176 1.17388 20.0176C0.525566 20.0176 0 19.4953 0 18.8509V16.8867C0 15.5389 0.533093 14.243 1.4857 13.2863C2.43868 12.3293 3.73382 11.79 5.08683 11.79H5.57595Z" fill="#444050"/>
<path fill-rule="evenodd" clip-rule="evenodd" d="M7.04331 0C8.39618 0 9.69147 0.539544 10.6444 1.49634C11.597 2.45304 12.1301 3.74891 12.1301 5.09669C12.1301 6.44436 11.5969 7.73886 10.6444 8.69551C9.69143 9.65262 8.39641 10.1934 7.04331 10.1934C5.69024 10.1933 4.39516 9.65259 3.44217 8.69551C2.48974 7.73887 1.95652 6.4443 1.95647 5.09669C1.95647 3.74891 2.48957 2.45304 3.44217 1.49634C4.39512 0.539503 5.69042 2.87347e-05 7.04331 0ZM7.04331 2.33339C6.32092 2.33342 5.6259 2.62177 5.11129 3.13853C4.59623 3.6558 4.30424 4.35995 4.30424 5.09669C4.30429 5.83336 4.59626 6.53761 5.11129 7.05485C5.62589 7.5715 6.32099 7.85996 7.04331 7.85999C7.76561 7.85999 8.46071 7.57146 8.97532 7.05485C9.49035 6.53761 9.78233 5.83336 9.78237 5.09669C9.78237 4.35995 9.49039 3.6558 8.97532 3.13853C8.4607 2.62181 7.76568 2.33339 7.04331 2.33339Z" fill="#444050"/>
</svg>
