<svg width="18" height="21" viewBox="0 0 18 21" fill="none" xmlns="http://www.w3.org/2000/svg">
<path fill-rule="evenodd" clip-rule="evenodd" d="M11.1705 11.7898C11.7929 11.7911 12.3945 11.9679 12.9161 12.2865C13.4397 11.9686 14.044 11.7946 14.6678 11.7958C15.5489 11.7976 16.3922 12.1442 17.0187 12.7589C17.3306 13.0649 17.5781 13.4309 17.7463 13.833C17.9144 14.2349 18.0007 14.6661 18 15.1014C17.9993 15.5367 17.9112 15.9684 17.7417 16.3699C17.5729 16.7694 17.325 17.1307 17.0141 17.4347L17.0156 17.4363L13.7384 20.6628C13.2806 21.1131 12.5434 21.1122 12.0861 20.6613L8.80587 17.4241C8.49404 17.118 8.24637 16.7537 8.07829 16.3516C7.91038 15.9497 7.82524 15.5183 7.82609 15.0832C7.82693 14.6478 7.91477 14.2162 8.08441 13.8147C8.25402 13.4136 8.50226 13.05 8.81505 12.7453C9.44402 12.1326 10.2892 11.7881 11.1705 11.7898ZM11.1659 14.1231C10.9042 14.1226 10.6497 14.2252 10.4582 14.4117C10.3694 14.4983 10.2979 14.6025 10.2488 14.7186C10.1997 14.8349 10.1742 14.9606 10.1739 15.0877C10.1737 15.2148 10.1986 15.3404 10.2473 15.4569C10.2716 15.5151 10.301 15.5708 10.3359 15.6225L10.4552 15.7653L10.4582 15.7668L12.913 18.1897L15.3633 15.7789L15.3679 15.7744C15.4568 15.6876 15.5282 15.5823 15.5773 15.466C15.6262 15.35 15.6519 15.225 15.6522 15.0984C15.6524 14.9712 15.6275 14.8442 15.5788 14.7277C15.5301 14.6114 15.458 14.5077 15.3694 14.4208C15.1786 14.2335 14.9249 14.1297 14.6632 14.1292C14.4015 14.1287 14.147 14.2297 13.9555 14.4163L13.7415 14.629C13.283 15.0808 12.5434 15.079 12.0861 14.6259L11.8721 14.4148L11.7177 14.2902C11.5537 14.1821 11.3622 14.1236 11.1659 14.1231Z" fill="#444050"/>
<path d="M5.57609 11.7898C6.22433 11.7899 6.75 12.3122 6.75 12.9564C6.74983 13.6006 6.22422 14.123 5.57609 14.1231H5.08696C4.36455 14.1231 3.66952 14.4114 3.15489 14.9282C2.63985 15.4455 2.34783 16.1496 2.34783 16.8863V18.8505C2.34783 19.4949 1.82225 20.0172 1.17391 20.0172C0.525579 20.0172 0 19.4949 0 18.8505V16.8863C0 15.5386 0.533164 14.2428 1.48573 13.2861C2.43869 12.3292 3.73401 11.7898 5.08696 11.7898H5.57609Z" fill="#444050"/>
<path fill-rule="evenodd" clip-rule="evenodd" d="M7.04348 0C8.39636 7.1618e-05 9.6918 0.53943 10.6447 1.49632C11.5973 2.45301 12.1304 3.74885 12.1304 5.09659C12.1304 6.4441 11.597 7.73871 10.6447 8.69535C9.69178 9.65239 8.39648 10.1931 7.04348 10.1932C5.69037 10.1932 4.39524 9.65246 3.44225 8.69535C2.48979 7.73869 1.95655 6.44423 1.95652 5.09659C1.95652 3.74885 2.48968 2.45301 3.44225 1.49632C4.39519 0.539534 5.69062 0 7.04348 0ZM7.04348 2.33334C6.32116 2.33334 5.62602 2.62174 5.11141 3.13847C4.59637 3.65574 4.30435 4.35982 4.30435 5.09659C4.30437 5.83332 4.5964 6.53747 5.11141 7.05471C5.62601 7.57137 6.32121 7.85984 7.04348 7.85984C7.76577 7.85977 8.46098 7.57148 8.97554 7.05471C9.49056 6.53747 9.78258 5.83332 9.78261 5.09659C9.78261 4.35985 9.49054 3.65573 8.97554 3.13847C8.46098 2.62168 7.76579 2.33341 7.04348 2.33334Z" fill="#444050"/>
</svg>
