<svg width="18" height="18" viewBox="0 0 18 18" fill="none" xmlns="http://www.w3.org/2000/svg">
<path d="M14.4 10.8C15.0118 10.8 15.5077 11.2959 15.5077 11.9077V13.2923H16.8923C17.5041 13.2923 18 13.7882 18 14.4C18 15.0118 17.5041 15.5077 16.8923 15.5077H15.5077V16.8923C15.5077 17.5041 15.0118 18 14.4 18C13.7882 18 13.2923 17.5041 13.2923 16.8923V15.5077H11.9077C11.2959 15.5077 10.8 15.0118 10.8 14.4C10.8 13.7882 11.2959 13.2923 11.9077 13.2923H13.2923V11.9077C13.2923 11.2959 13.7882 10.8 14.4 10.8Z" fill="#444050"/>
<path d="M7.75385 9.96923C8.81638 9.96923 9.79232 10.345 10.5555 10.9677C11.0295 11.3544 11.1002 12.0514 10.7135 12.5254C10.3267 12.9993 9.62976 13.07 9.15577 12.6833C8.77252 12.3706 8.28637 12.1846 7.75385 12.1846H4.43077C3.84321 12.1846 3.27989 12.4182 2.86442 12.8337C2.44896 13.2491 2.21538 13.8124 2.21538 14.4V16.0615C2.21538 16.6733 1.71945 17.1692 1.10769 17.1692C0.495931 17.1692 0 16.6733 0 16.0615V14.4C0 13.2249 0.467147 12.0982 1.29808 11.2673C2.12901 10.4364 3.25566 9.96923 4.43077 9.96923H7.75385Z" fill="#444050"/>
<path fill-rule="evenodd" clip-rule="evenodd" d="M6.09231 0C7.26742 0 8.39407 0.467146 9.225 1.29808C10.0559 2.12901 10.5231 3.25566 10.5231 4.43077L10.5177 4.65036C10.4634 5.74552 10.004 6.78444 9.225 7.56346C8.44597 8.34249 7.40706 8.80183 6.3119 8.85613L6.09231 8.86154C4.9172 8.86154 3.79055 8.39439 2.95962 7.56346C2.18059 6.78444 1.72125 5.74552 1.66695 4.65036L1.66154 4.43077C1.66154 3.25566 2.12868 2.12901 2.95962 1.29808C3.79055 0.467146 4.91719 0 6.09231 0ZM6.09231 2.21538C5.50475 2.21538 4.94143 2.44896 4.52596 2.86442C4.1105 3.27989 3.87692 3.84321 3.87692 4.43077L3.88774 4.64928C3.93801 5.1566 4.16232 5.63348 4.52596 5.99712C4.94143 6.41258 5.50475 6.64615 6.09231 6.64615L6.31082 6.63534C6.81814 6.58507 7.29501 6.36076 7.65865 5.99712C8.07412 5.58165 8.30769 5.01833 8.30769 4.43077L8.29688 4.21226C8.24661 3.70494 8.02229 3.22806 7.65865 2.86442C7.24319 2.44896 6.67986 2.21538 6.09231 2.21538Z" fill="#444050"/>
<path d="M10.8346 0.941106C10.9864 0.348462 11.5898 -0.00895239 12.1825 0.142788C13.1355 0.386819 13.9807 0.940642 14.5839 1.71779C15.1871 2.49496 15.5142 3.45128 15.5142 4.4351C15.5141 5.41867 15.1869 6.37428 14.5839 7.15132C13.9806 7.92849 13.1355 8.48338 12.1825 8.7274C11.5899 8.87911 10.9864 8.52162 10.8346 7.92909C10.6829 7.33646 11.0403 6.73301 11.6329 6.58125C12.1094 6.45926 12.532 6.18225 12.8337 5.79375C13.1352 5.40521 13.2988 4.92695 13.2988 4.4351C13.2988 3.9432 13.1353 3.46502 12.8337 3.07644C12.532 2.68787 12.1095 2.41096 11.6329 2.28894C11.0403 2.13721 10.683 1.5337 10.8346 0.941106Z" fill="#444050"/>
</svg>
