<svg width="18" height="26" viewBox="0 0 18 26" fill="none" xmlns="http://www.w3.org/2000/svg">
<path d="M11.5257 15.4074C13.2426 15.4074 14.8894 16.1012 16.1034 17.3352C17.3175 18.5692 18 20.2431 18 21.9883V24.5556C18 25.3533 17.3638 26 16.5789 26C15.7941 26 15.1579 25.3533 15.1579 24.5556V21.9883C15.1579 21.0093 14.775 20.07 14.094 19.3777C13.4129 18.6855 12.4889 18.2963 11.5257 18.2963H6.4743C5.51115 18.2963 4.5871 18.6855 3.90604 19.3777C3.22499 20.07 2.84211 21.0093 2.84211 21.9883V24.5556L2.8347 24.7041C2.76153 25.4321 2.15653 26 1.42105 26C0.685579 26 0.0805786 25.4321 0.00740132 24.7041L0 24.5556V21.9883C0 20.2431 0.682536 18.5693 1.89659 17.3352C3.11064 16.1012 4.75737 15.4074 6.4743 15.4074H11.5257Z" fill="#444050"/>
<path fill-rule="evenodd" clip-rule="evenodd" d="M9 0C10.7169 0 12.3637 0.693771 13.5777 1.92781C14.7916 3.16181 15.4743 4.83583 15.4743 6.58087C15.4741 8.32584 14.7916 10.0001 13.5777 11.2339C12.3637 12.4678 10.7168 13.1599 9 13.1599C7.28322 13.1599 5.63631 12.4678 4.42229 11.2339C3.20838 10.0001 2.52586 8.32584 2.5257 6.58087C2.5257 4.83583 3.20843 3.16181 4.42229 1.92781C5.63634 0.693771 7.28307 6.08024e-08 9 0ZM9 2.88889C8.03685 2.88889 7.1128 3.27808 6.43174 3.97034C5.75088 4.66258 5.3678 5.60201 5.3678 6.58087C5.36797 7.55936 5.75122 8.49747 6.43174 9.18953C7.1128 9.88179 8.03685 10.271 9 10.271C9.96316 10.271 10.8872 9.88179 11.5683 9.18953C12.2488 8.49747 12.632 7.55936 12.6322 6.58087C12.6322 5.60201 12.2491 4.66258 11.5683 3.97034C10.8872 3.27808 9.96316 2.88889 9 2.88889Z" fill="#444050"/>
</svg>
