<svg width="18" height="21" viewBox="0 0 18 21" fill="none" xmlns="http://www.w3.org/2000/svg">
<path d="M9.52134 12.4444C10.1697 12.4444 10.6953 12.9668 10.6953 13.6111C10.6953 14.2554 10.1697 14.7778 9.52134 14.7778H5.3484C4.55274 14.7778 3.78939 15.0921 3.22677 15.6513C2.66416 16.2104 2.34785 16.969 2.34785 17.7598V19.8333L2.34174 19.9533C2.28129 20.5413 1.7815 21 1.17393 21C0.566355 21 0.0665657 20.5413 0.0061142 19.9533L0 19.8333V17.7598C0 16.3502 0.563841 14.9982 1.56676 14.0015C2.56969 13.0048 3.93005 12.4444 5.3484 12.4444H9.52134Z" fill="#444050"/>
<path d="M15.9963 14.8598C16.4547 14.4045 17.1979 14.4045 17.6563 14.8598C18.1147 15.3153 18.1145 16.0539 17.6563 16.5095L13.4818 20.6582C13.0234 21.1136 12.2802 21.1137 11.8218 20.6582L9.73534 18.5846C9.27698 18.1291 9.27715 17.3905 9.73534 16.9349C10.1938 16.4793 10.9369 16.4793 11.3953 16.9349L12.6518 18.1836L15.9963 14.8598Z" fill="#444050"/>
<path fill-rule="evenodd" clip-rule="evenodd" d="M7.43487 0C8.85322 0 10.2136 0.560353 11.2165 1.55707C12.2193 2.55377 12.7833 3.90586 12.7833 5.31532C12.7831 6.72472 12.2193 8.07697 11.2165 9.07357C10.2136 10.0701 8.8531 10.6291 7.43487 10.6291C6.01664 10.6291 4.65614 10.0701 3.65324 9.07357C2.65043 8.07697 2.08661 6.72472 2.08647 5.31532C2.08647 3.90586 2.65047 2.55377 3.65324 1.55707C4.65616 0.560353 6.01652 4.91096e-08 7.43487 0ZM7.43487 2.33333C6.63921 2.33333 5.87586 2.64768 5.31324 3.20681C4.75079 3.76593 4.43433 4.5247 4.43433 5.31532C4.43446 6.10564 4.75107 6.86334 5.31324 7.42231C5.87586 7.98145 6.63921 8.29579 7.43487 8.29579C8.23053 8.29579 8.99388 7.98145 9.5565 7.42231C10.1187 6.86334 10.4353 6.10564 10.4354 5.31532C10.4354 4.5247 10.119 3.76593 9.5565 3.20681C8.99388 2.64768 8.23053 2.33333 7.43487 2.33333Z" fill="#444050"/>
</svg>
