<svg width="18" height="21" viewBox="0 0 18 21" fill="none" xmlns="http://www.w3.org/2000/svg">
<path d="M14.0625 13.1188C14.5595 13.1188 14.9624 13.5276 14.9625 14.0318V16.1468H17.1C17.5971 16.1468 18 16.5556 18 17.0598C17.9998 17.5639 17.5969 17.9729 17.1 17.9729H14.9625V20.087C14.9625 20.5912 14.5596 21 14.0625 21C13.5654 21 13.1625 20.5912 13.1625 20.087V17.9729H11.025C10.5281 17.9729 10.1252 17.5639 10.125 17.0598C10.125 16.5556 10.5279 16.1468 11.025 16.1468H13.1625V14.0318C13.1626 13.5276 13.5655 13.1188 14.0625 13.1188Z" fill="#444050"/>
<path d="M9 12.1094C9.49692 12.1094 9.89978 12.5184 9.9 13.0225C9.9 13.5267 9.49706 13.9355 9 13.9355H4.95C4.10948 13.9355 3.30626 14.269 2.7167 14.8566C2.12778 15.4436 1.8 16.2368 1.8 17.0598V19.0776C1.8 19.5819 1.39706 19.9907 0.9 19.9907C0.402944 19.9907 0 19.5819 0 19.0776V17.0598C0 15.7418 0.525454 14.4808 1.45547 13.5539C2.38495 12.6275 3.64227 12.1094 4.95 12.1094H9Z" fill="#444050"/>
<path fill-rule="evenodd" clip-rule="evenodd" d="M6.975 0C8.28273 0 9.54005 0.518056 10.4695 1.44446C11.3994 2.37136 11.925 3.63167 11.925 4.94952C11.925 6.26751 11.3996 7.52851 10.4695 8.45546C9.5981 9.32397 8.43845 9.83347 7.21934 9.89368L6.975 9.89903C5.66731 9.89903 4.40994 9.38182 3.48047 8.45546C2.55045 7.52851 2.025 6.26751 2.025 4.94952C2.02504 3.63167 2.55062 2.37136 3.48047 1.44446C4.40995 0.518056 5.66727 0 6.975 0ZM6.975 1.82609C6.13451 1.82609 5.33126 2.15868 4.7417 2.74626C4.15271 3.33331 3.82504 4.12641 3.825 4.94952C3.825 5.77263 4.15273 6.5657 4.7417 7.15277C5.33126 7.74038 6.13448 8.07295 6.975 8.07295L7.13232 8.06938C7.91519 8.0306 8.65563 7.70361 9.2083 7.15277C9.79727 6.5657 10.125 5.77263 10.125 4.94952C10.125 4.12641 9.79729 3.33331 9.2083 2.74626C8.61874 2.15868 7.81549 1.82609 6.975 1.82609Z" fill="#444050"/>
</svg>
