<svg width="18" height="21" viewBox="0 0 18 21" fill="none" xmlns="http://www.w3.org/2000/svg">
<path fill-rule="evenodd" clip-rule="evenodd" d="M12.9132 11.7898C14.0067 11.7899 15.0525 12.2264 15.822 12.999C16.5911 13.7715 17.0219 14.8164 17.0219 15.9036C17.0219 16.5955 16.8455 17.2694 16.5206 17.8678L17.6609 19.0132C18.1167 19.4712 18.1124 20.2098 17.6517 20.6629C17.1908 21.1159 16.4476 21.1118 15.9917 20.6538L14.8651 19.5221C14.2712 19.8433 13.6019 20.0173 12.9132 20.0173C11.8195 20.0173 10.7724 19.581 10.0028 18.8081C9.23396 18.0357 8.80444 16.9906 8.80444 15.9036C8.80447 14.8166 9.23391 13.7714 10.0028 12.999C10.7724 12.2262 11.8195 11.7898 12.9132 11.7898ZM12.9132 14.1232C12.4502 14.1232 12.0032 14.3071 11.672 14.6397C11.3404 14.9727 11.1523 15.4274 11.1523 15.9036C11.1523 16.3798 11.3404 16.8344 11.672 17.1675C12.0032 17.5001 12.4502 17.684 12.9132 17.684C13.3761 17.6839 13.8232 17.5001 14.1544 17.1675C14.4859 16.8345 14.6741 16.3797 14.6741 15.9036C14.674 15.4274 14.4859 14.9727 14.1544 14.6397C13.8232 14.3071 13.3761 14.1232 12.9132 14.1232Z" fill="#444050"/>
<path d="M6.55442 11.7898C7.20273 11.7899 7.72834 12.3122 7.72834 12.9565C7.72823 13.6007 7.20266 14.1231 6.55442 14.1232H5.08701C4.36457 14.1232 3.66957 14.4115 3.15493 14.9283C2.63986 15.4456 2.34785 16.1497 2.34785 16.8864V18.8506C2.34785 19.495 1.82227 20.0173 1.17393 20.0173C0.525584 20.0173 0 19.495 0 18.8506V16.8864C0 15.5387 0.533141 14.2429 1.48575 13.2861C2.43874 12.3292 3.73403 11.7898 5.08701 11.7898H6.55442Z" fill="#444050"/>
<path fill-rule="evenodd" clip-rule="evenodd" d="M7.04355 0C8.39648 1.89093e-05 9.69185 0.53947 10.6448 1.49632C11.5974 2.45303 12.1306 3.74885 12.1306 5.09662C12.1305 6.44422 11.5972 7.73873 10.6448 8.69539C9.69181 9.6525 8.39667 10.1932 7.04355 10.1932C5.69041 10.1932 4.39531 9.65251 3.44229 8.69539C2.48984 7.73872 1.95656 6.44425 1.95654 5.09662C1.95654 3.74885 2.48968 2.45303 3.44229 1.49632C4.39527 0.539498 5.69063 0 7.04355 0ZM7.04355 2.33335C6.32117 2.33335 5.6261 2.62172 5.11147 3.13848C4.5964 3.65576 4.30439 4.35985 4.30439 5.09662C4.30441 5.83336 4.59642 6.53749 5.11147 7.05475C5.6261 7.57147 6.3212 7.85988 7.04355 7.85988C7.76591 7.85986 8.46102 7.5715 8.97564 7.05475C9.49069 6.53749 9.7827 5.83336 9.78271 5.09662C9.78271 4.35985 9.49071 3.65576 8.97564 3.13848C8.46101 2.6217 7.76594 2.33337 7.04355 2.33335Z" fill="#444050"/>
</svg>
