<svg width="18" height="18" viewBox="0 0 18 18" fill="none" xmlns="http://www.w3.org/2000/svg">
<path fill-rule="evenodd" clip-rule="evenodd" d="M9 3.55599C9.97226 3.55599 10.9049 3.94154 11.5924 4.62891C12.2801 5.31654 12.6667 6.2502 12.6667 7.22266C12.6666 8.19496 12.28 9.12757 11.5924 9.8151C10.9048 10.5026 9.97236 10.8893 9 10.8893C8.02764 10.8893 7.09517 10.5026 6.40755 9.8151C5.72002 9.12757 5.33345 8.19496 5.33333 7.22266C5.33333 6.2502 5.71992 5.31654 6.40755 4.62891C7.09514 3.94154 8.02774 3.55599 9 3.55599ZM9 5.55599C8.55797 5.55599 8.13418 5.73171 7.82161 6.04427C7.50919 6.35681 7.33333 6.78073 7.33333 7.22266C7.33345 7.66453 7.50916 8.08858 7.82161 8.40104C8.13415 8.71347 8.55807 8.88932 9 8.88932C9.44193 8.88932 9.86585 8.71347 10.1784 8.40104C10.4908 8.08858 10.6666 7.66453 10.6667 7.22266C10.6667 6.78073 10.4908 6.35681 10.1784 6.04427C9.86583 5.73171 9.44203 5.55599 9 5.55599Z" fill="#444050"/>
<path fill-rule="evenodd" clip-rule="evenodd" d="M9 0C12.1929 0 14.5888 0.375222 16.1068 1.89323C17.6248 3.41124 18 5.80715 18 9C18 12.1929 17.6248 14.5888 16.1068 16.1068C14.5888 17.6248 12.1929 18 9 18C5.80715 18 3.41124 17.6248 1.89323 16.1068C0.375222 14.5888 0 12.1929 0 9C1.86629e-08 5.80715 0.375222 3.41124 1.89323 1.89323C3.41124 0.375222 5.80715 1.86625e-08 9 0ZM7.22266 13.556C6.54488 13.556 5.89462 13.8254 5.41536 14.3047C5.07808 14.6421 4.84682 15.0642 4.73828 15.5208C5.70051 15.8407 7.05487 16 9 16C10.9443 16 12.2983 15.8404 13.2604 15.5208C13.1519 15.0643 12.9218 14.642 12.5846 14.3047C12.1054 13.8254 11.4551 13.556 10.7773 13.556H7.22266ZM9 2C5.79285 2 4.18928 2.4253 3.30729 3.30729C2.4253 4.18928 2 5.79285 2 9C2 11.8333 2.33278 13.4144 3.01823 14.3529C3.24488 13.8109 3.57789 13.3127 4.0013 12.8893C4.85559 12.0353 6.01465 11.556 7.22266 11.556H10.7773C11.9853 11.556 13.1444 12.0353 13.9987 12.8893C14.422 13.3126 14.7538 13.8111 14.9805 14.3529C15.6662 13.4145 16 11.8339 16 9C16 5.79285 15.5747 4.18928 14.6927 3.30729C13.8107 2.4253 12.2071 2 9 2Z" fill="#444050"/>
</svg>
