<svg width="18" height="21" viewBox="0 0 18 21" fill="none" xmlns="http://www.w3.org/2000/svg">
<path fill-rule="evenodd" clip-rule="evenodd" d="M13.8656 11.9659C14.5139 11.9659 15.0395 12.4883 15.0395 13.1326V13.6263C15.3059 13.7326 15.5562 13.8773 15.7854 14.0532L16.244 13.7934C16.8074 13.4745 17.525 13.671 17.8459 14.2309C18.1662 14.7905 17.9699 15.5024 17.4073 15.8214L16.9609 16.0736C16.9793 16.2084 16.993 16.3445 16.993 16.4822C16.993 16.6197 16.9792 16.7563 16.9609 16.8908L17.4073 17.1445C17.9705 17.4633 18.1666 18.1751 17.8459 18.735C17.5252 19.2949 16.8089 19.4912 16.2455 19.1725L15.7854 18.9112C15.5562 19.0873 15.306 19.2317 15.0395 19.3381V19.8333C15.0395 20.4777 14.5139 21 13.8656 21C13.2174 20.9998 12.6916 20.4775 12.6916 19.8333V19.3366C12.4254 19.2302 12.1747 19.0872 11.9457 18.9112L11.4871 19.1725C10.9238 19.4909 10.2074 19.2948 9.88673 18.735C9.5662 18.1753 9.76248 17.4634 10.3254 17.1445L10.7702 16.8924C10.7519 16.7573 10.7397 16.6201 10.7397 16.4822C10.7397 16.3441 10.7518 16.2073 10.7702 16.072L10.3254 15.8214C9.76247 15.5025 9.56626 14.7907 9.88673 14.2309C10.2074 13.6711 10.9238 13.475 11.4871 13.7934L11.9457 14.0532C12.1747 13.8774 12.4255 13.7341 12.6916 13.6278V13.1326C12.6916 12.4884 13.2174 11.9662 13.8656 11.9659ZM13.8656 15.7348C13.6542 15.7349 13.4539 15.8177 13.3092 15.9596C13.1653 16.1009 13.0877 16.2894 13.0875 16.4822C13.0875 16.6753 13.1651 16.8648 13.3092 17.0063C13.4539 17.1482 13.6542 17.231 13.8656 17.2311C14.077 17.2311 14.2771 17.1482 14.422 17.0063C14.5663 16.8648 14.6451 16.6755 14.6451 16.4822C14.645 16.2892 14.5661 16.101 14.422 15.9596C14.2771 15.8177 14.0771 15.7348 13.8656 15.7348Z" fill="#444050"/>
<path d="M7.51899 11.4874C8.16734 11.4874 8.69293 12.0097 8.69293 12.6541C8.6928 13.2983 8.16726 13.8207 7.51899 13.8207H5.07941C4.35011 13.8207 3.6537 14.1051 3.14272 14.6061C2.63243 15.1065 2.34806 15.7814 2.34787 16.4822V18.3978C2.34768 19.042 1.82216 19.5645 1.17393 19.5645C0.525706 19.5645 0.000190247 19.042 0 18.3978V16.4822C0.000189531 15.1524 0.539386 13.8797 1.4934 12.9442C2.44701 12.0094 3.73766 11.4874 5.07941 11.4874H7.51899Z" fill="#444050"/>
<path fill-rule="evenodd" clip-rule="evenodd" d="M7.03138 0C8.37334 0 9.66373 0.523218 10.6174 1.45833C11.5713 2.39393 12.1108 3.66648 12.1108 4.99631C12.1106 6.32614 11.5714 7.59879 10.6174 8.53429C9.66374 9.46932 8.37328 9.9911 7.03138 9.9911C5.68948 9.9911 4.39901 9.46932 3.44538 8.53429C2.49133 7.59879 1.95213 6.32614 1.95197 4.99631C1.95197 3.66648 2.49147 2.39393 3.44538 1.45833C4.39903 0.523218 5.68942 3.3909e-07 7.03138 0ZM7.03138 2.33333C6.30202 2.33333 5.60569 2.61765 5.09469 3.11871C4.58424 3.61924 4.29984 4.2953 4.29984 4.99631C4.3 5.69703 4.5845 6.37202 5.09469 6.8724C5.60569 7.37346 6.30202 7.65777 7.03138 7.65777C7.76074 7.65777 8.45707 7.37346 8.96807 6.8724C9.47826 6.37202 9.76276 5.69704 9.76292 4.99631C9.76292 4.2953 9.47852 3.61924 8.96807 3.11871C8.45707 2.61765 7.76074 2.33333 7.03138 2.33333Z" fill="#444050"/>
</svg>
